<svg width="91" height="58" viewBox="0 0 91 58" fill="none" xmlns="http://www.w3.org/2000/svg">
<path fill-rule="evenodd" clip-rule="evenodd" d="M0.203703 36.7926C-1.06035 27.0942 2.9733 7.31409 29.0348 0C24.4551 3.95804 21.6821 10.9407 20.4179 15.5657C20.8098 15.5445 21.2046 15.5337 21.6018 15.5337C33.4197 15.5337 43 25.0401 43 36.7669C43 48.4936 33.4197 58 21.6018 58C9.79262 58 0.217715 48.5075 0.203703 36.7926Z" fill="#131313"/>
<path fill-rule="evenodd" clip-rule="evenodd" d="M48.2037 36.7926C46.9397 27.0942 50.9733 7.31409 77.0348 0C72.4551 3.95804 69.6821 10.9407 68.4179 15.5657C68.8098 15.5445 69.2046 15.5337 69.6018 15.5337C81.4197 15.5337 91 25.0401 91 36.7669C91 48.4936 81.4197 58 69.6018 58C57.7926 58 48.2177 48.5075 48.2037 36.7926Z" fill="#131313"/>
</svg>
