<svg width="138" height="127" viewBox="0 0 138 127" fill="none" xmlns="http://www.w3.org/2000/svg">
<path fill-rule="evenodd" clip-rule="evenodd" d="M0 8.31067V77.2019V80.2685V91.008C0 95.5896 3.72753 99.3187 8.31067 99.3187H57.265C55.9871 105.592 52.424 111.29 47.2907 115.21H44.3836C41.3354 115.21 38.856 117.689 38.856 120.738C38.856 123.786 41.3354 126.265 44.3836 126.265H93.6159C96.6642 126.265 99.1436 123.786 99.1436 120.738C99.1436 117.689 96.6642 115.21 93.6159 115.21H90.7071C85.5737 111.29 82.0093 105.593 80.7312 99.3187H129.689C134.271 99.3187 138 95.5896 138 91.008V80.2685V77.2019V8.31067C138 3.72753 134.271 0 129.689 0H8.31067C3.72753 0 0 3.72753 0 8.31067ZM51.9597 115.208C56.319 110.915 59.2951 105.339 60.3884 99.3187H77.6109C78.7057 105.339 81.6819 110.915 86.0411 115.208H51.9597ZM134.933 77.2018H3.06667V8.31067C3.06667 5.4188 5.4188 3.06667 8.31067 3.06667H129.689C132.581 3.06667 134.933 5.4188 134.933 8.31067V77.2018ZM3.06667 91.008V80.2686H134.933V91.008C134.933 93.8999 132.581 96.252 129.689 96.252H8.31067C5.4188 96.252 3.06667 93.8999 3.06667 91.008ZM41.9226 120.736C41.9226 119.379 43.0266 118.275 44.3836 118.275H93.6159C94.9729 118.275 96.0769 119.379 96.0769 120.736C96.0769 122.093 94.9744 123.197 93.6159 123.197H44.3836C43.0266 123.197 41.9226 122.093 41.9226 120.736ZM71.6086 89.7936H66.3922C65.5458 89.7936 64.8589 89.1082 64.8589 88.2603C64.8589 87.4123 65.5458 86.7269 66.3922 86.7269H71.6086C72.4566 86.7269 73.142 87.4123 73.142 88.2603C73.142 89.1082 72.4566 89.7936 71.6086 89.7936ZM47.501 46.4586C48.7413 50.2867 50.2845 55.0497 55.6374 55.0497C56.4838 55.0497 57.1722 54.3628 57.1722 53.5164C57.1722 52.67 56.4853 51.9831 55.6389 51.9831C52.6658 51.9831 51.7182 49.5236 50.4194 45.5109C49.6359 43.0897 48.7282 40.2899 46.8008 38.5986C48.7282 36.9073 49.6359 34.1075 50.4194 31.6863C51.7182 27.6736 52.6658 25.2141 55.6389 25.2141C56.4853 25.2141 57.1722 24.5272 57.1722 23.6808C57.1722 22.8344 56.4853 22.1475 55.6389 22.1475C50.2849 22.1475 48.7422 26.9109 47.5018 30.741L47.5015 30.7418C46.2319 34.6625 45.3104 37.0653 42.4967 37.0653C41.6503 37.0653 40.9634 37.7522 40.9634 38.5986C40.9634 39.445 41.6503 40.1319 42.4967 40.1319C45.3104 40.1319 46.2304 42.5347 47.5 46.4554L47.501 46.4586ZM82.3629 55.0497C81.515 55.0497 80.8296 54.3628 80.8296 53.5164C80.8296 52.67 81.515 51.9831 82.3629 51.9831C85.3345 51.9831 86.2837 49.5236 87.5824 45.5093C88.3659 43.0897 89.2737 40.2883 91.2011 38.5986C89.2721 36.9073 88.3644 34.1075 87.5824 31.6879C86.2821 27.6736 85.3345 25.2141 82.3629 25.2141C81.515 25.2141 80.8296 24.5272 80.8296 23.6808C80.8296 22.8344 81.515 22.1475 82.3629 22.1475C87.7159 22.1475 89.259 26.9105 90.4993 30.7387L90.5003 30.7418C91.7699 34.6625 92.6899 37.0653 95.5036 37.0653C96.3515 37.0653 97.0369 37.7522 97.0369 38.5986C97.0369 39.445 96.3515 40.1319 95.5036 40.1319C92.6899 40.1319 91.7684 42.5347 90.4988 46.4554C89.2599 50.2841 87.7173 55.0497 82.3629 55.0497ZM62.4851 58.532C62.6477 58.5857 62.8117 58.6117 62.9727 58.6117C63.6137 58.6117 64.2117 58.2054 64.4279 57.566L76.8172 20.608C77.0871 19.8061 76.6531 18.9367 75.8497 18.6668C75.0477 18.3985 74.1783 18.8309 73.9085 19.6328L61.5191 56.5908C61.2493 57.3927 61.6832 58.2621 62.4851 58.532Z" fill="url(#paint0_linear_247_128)"/>
<defs>
<linearGradient id="paint0_linear_247_128" x1="138" y1="0" x2="-14.7163" y2="92.4888" gradientUnits="userSpaceOnUse">
<stop stop-color="#31783C"/>
<stop offset="1" stop-color="#07C80E"/>
</linearGradient>
</defs>
</svg>
