<svg width="138" height="127" viewBox="0 0 138 127" fill="none" xmlns="http://www.w3.org/2000/svg">
<mask id="mask0_131_224" style="mask-type:alpha" maskUnits="userSpaceOnUse" x="0" y="0" width="138" height="127">
<path d="M138 80.2685H0V8.31067C0 3.72753 3.72753 0 8.31067 0H129.689C134.271 0 138 3.72753 138 8.31067V80.2685ZM3.06667 77.2018H134.933V8.31067C134.933 5.4188 132.581 3.06667 129.689 3.06667H8.31067C5.4188 3.06667 3.06667 5.4188 3.06667 8.31067V77.2018Z" fill="black"/>
<path d="M129.689 99.3187H8.31067C3.72753 99.3187 0 95.5896 0 91.008V77.2019H138V91.008C138 95.5896 134.271 99.3187 129.689 99.3187ZM3.06667 80.2686V91.008C3.06667 93.8999 5.4188 96.252 8.31067 96.252H129.689C132.581 96.252 134.933 93.8999 134.933 91.008V80.2686H3.06667Z" fill="black"/>
<path d="M90.198 118.275H47.8013C47.1389 118.275 46.5517 117.85 46.3447 117.22C46.1377 116.59 46.36 115.9 46.8936 115.507C52.7172 111.231 56.6042 104.697 57.5579 97.5828C57.6591 96.8223 58.3093 96.2534 59.0775 96.2534H78.9188C79.687 96.2534 80.3371 96.8208 80.4383 97.5828C81.3921 104.699 85.2806 111.231 91.1042 115.507C91.6393 115.9 91.8601 116.59 91.6531 117.22C91.4461 117.85 90.8619 118.275 90.198 118.275ZM51.9597 115.208H86.0411C81.6819 110.915 78.7057 105.338 77.6109 99.3186H60.3885C59.2952 105.338 56.319 110.915 51.9597 115.208Z" fill="black"/>
<path d="M93.6159 126.265H44.3836C41.3354 126.265 38.856 123.786 38.856 120.738C38.856 117.689 41.3354 115.21 44.3836 115.21H93.6159C96.6642 115.21 99.1436 117.689 99.1436 120.738C99.1436 123.786 96.6642 126.265 93.6159 126.265ZM44.3836 118.275C43.0266 118.275 41.9226 119.379 41.9226 120.736C41.9226 122.093 43.0266 123.197 44.3836 123.197H93.6159C94.9744 123.197 96.0769 122.093 96.0769 120.736C96.0769 119.379 94.9729 118.275 93.6159 118.275H44.3836Z" fill="black"/>
<path d="M71.6086 89.7936H66.3922C65.5458 89.7936 64.8589 89.1082 64.8589 88.2603C64.8589 87.4123 65.5458 86.7269 66.3922 86.7269H71.6086C72.4566 86.7269 73.142 87.4123 73.142 88.2603C73.142 89.1082 72.4566 89.7936 71.6086 89.7936Z" fill="black"/>
<path d="M55.6374 55.0497C50.283 55.0497 48.7404 50.2841 47.5 46.4554C46.2304 42.5347 45.3104 40.1319 42.4967 40.1319C41.6503 40.1319 40.9634 39.445 40.9634 38.5986C40.9634 37.7522 41.6503 37.0653 42.4967 37.0653C45.3104 37.0653 46.2319 34.6625 47.5015 30.7418C48.742 26.9115 50.2845 22.1475 55.6389 22.1475C56.4853 22.1475 57.1722 22.8344 57.1722 23.6808C57.1722 24.5272 56.4853 25.2141 55.6389 25.2141C52.6658 25.2141 51.7182 27.6736 50.4194 31.6863C49.6359 34.1075 48.7282 36.9073 46.8008 38.5986C48.7282 40.2899 49.6359 43.0897 50.4194 45.5109C51.7182 49.5236 52.6658 51.9831 55.6389 51.9831C56.4853 51.9831 57.1722 52.67 57.1722 53.5164C57.1722 54.3628 56.4838 55.0497 55.6374 55.0497Z" fill="black"/>
<path d="M82.3629 55.0497C81.515 55.0497 80.8296 54.3628 80.8296 53.5164C80.8296 52.67 81.515 51.9831 82.3629 51.9831C85.3345 51.9831 86.2837 49.5236 87.5824 45.5093C88.3659 43.0897 89.2737 40.2883 91.2011 38.5986C89.2721 36.9073 88.3644 34.1075 87.5824 31.6879C86.2821 27.6736 85.3345 25.2141 82.3629 25.2141C81.515 25.2141 80.8296 24.5272 80.8296 23.6808C80.8296 22.8344 81.515 22.1475 82.3629 22.1475C87.7173 22.1475 89.2599 26.9131 90.5003 30.7418C91.7699 34.6625 92.6899 37.0653 95.5036 37.0653C96.3515 37.0653 97.0369 37.7522 97.0369 38.5986C97.0369 39.445 96.3515 40.1319 95.5036 40.1319C92.6899 40.1319 91.7684 42.5347 90.4988 46.4554C89.2599 50.2841 87.7173 55.0497 82.3629 55.0497Z" fill="black"/>
<path d="M62.9727 58.6117C62.8117 58.6117 62.6477 58.5857 62.4851 58.532C61.6832 58.2621 61.2493 57.3927 61.5191 56.5908L73.9085 19.6328C74.1783 18.8309 75.0477 18.3985 75.8497 18.6668C76.6531 18.9367 77.0871 19.8061 76.8172 20.608L64.4279 57.566C64.2117 58.2054 63.6137 58.6117 62.9727 58.6117Z" fill="black"/>
</mask>
<g mask="url(#mask0_131_224)">
<path d="M0 0H138.055V126.05H0V0Z" fill="url(#paint0_linear_131_224)"/>
</g>
<defs>
<linearGradient id="paint0_linear_131_224" x1="138.055" y1="0" x2="-14.5495" y2="92.6155" gradientUnits="userSpaceOnUse">
<stop stop-color="#31783C"/>
<stop offset="1" stop-color="#07C80E"/>
</linearGradient>
</defs>
</svg>
