<svg width="241" height="141" viewBox="0 0 241 141" fill="none" xmlns="http://www.w3.org/2000/svg">
<path fill-rule="evenodd" clip-rule="evenodd" d="M90.4205 65.8609C90.4205 65.312 90.8321 64.132 92.4786 63.8027C94.5368 63.3911 105.239 62.9794 107.709 63.8027C110.179 64.626 115.942 68.7423 114.707 75.74C113.719 81.3382 113.197 84.6587 113.06 85.6191C112.1 90.2843 107.133 99.4499 94.9484 98.7913C91.6554 98.7913 88.0879 98.5169 86.7158 98.3797C85.8925 98.2425 84.3284 97.5564 84.6577 95.9099C84.987 94.2634 88.6367 75.1911 90.4205 65.8609ZM122.116 63.8027C121.293 63.9399 119.564 64.7083 119.235 66.6841C118.905 68.66 115.53 87.5401 113.884 96.7331C113.746 97.4192 113.801 98.7913 115.118 98.7913H120.47C120.881 98.7913 121.787 98.462 122.116 97.1448C122.445 95.8276 123.625 88.9122 124.174 85.6191H127.879L131.995 97.5564C132.132 97.968 132.654 98.7913 133.642 98.7913H139.816C140.365 98.7913 141.298 98.3797 140.64 96.7331C139.981 95.0866 137.346 87.8145 136.112 84.3842C138.993 83.2866 144.591 79.28 143.933 72.0353C143.274 64.7906 137.895 63.2539 135.288 63.3911L122.116 63.8027ZM149.695 65.0376C150.025 64.0497 150.93 63.8027 151.342 63.8027L156.281 63.8027C157.673 63.8027 157.594 64.391 157.537 64.8216C157.526 64.9004 157.516 64.9739 157.516 65.0376C155.87 74.7795 152.494 94.675 152.165 96.3215C151.836 97.968 150.93 98.3797 150.519 98.3797H144.756C143.768 98.3797 143.795 97.282 143.933 96.7331C145.716 86.5796 149.366 66.0255 149.695 65.0376ZM174.393 63.3911L161.221 63.3911C160.672 63.3911 159.657 63.8027 159.986 65.4493C160.315 67.0958 164.788 91.1075 166.984 102.908H194.151L218.438 65.0376C218.712 64.4888 218.849 63.3911 217.203 63.3911L203.207 63.3911L184.272 95.0866C184.135 95.4983 183.614 96.3215 182.626 96.3215C181.638 96.3215 181.116 95.2238 180.979 94.675L176.451 65.0376C176.314 64.4888 175.71 63.3911 174.393 63.3911ZM168.63 110.317L167.807 107.024H191.682L189.623 110.317H168.63ZM169.042 113.198L169.865 116.08H185.919L187.565 113.198H169.042ZM171.512 121.431C170.524 121.431 170.002 119.236 169.865 118.138H184.684L182.214 121.431H171.512ZM231.198 63.3911C234.491 63.3911 240.583 63.3911 240.254 65.0376L239.431 69.1539C239.431 69.4283 239.019 69.9772 237.373 69.9772H227.905C227.219 69.9772 225.765 70.4711 225.435 72.447L224.612 77.3865H236.138C236.687 77.3865 237.702 77.7158 237.373 79.0331C237.043 80.3503 236.687 82.0517 236.549 82.7377C236.412 83.1494 235.808 83.9726 234.491 83.9726H223.377L222.554 90.5587C222.417 90.9703 222.472 91.7936 223.789 91.7936H234.08C234.628 91.7936 235.644 92.2052 235.314 93.8517C235.236 94.2438 235.188 94.6358 235.14 95.0165L235.14 95.0167L235.14 95.017C234.94 96.6345 234.765 98.0465 232.433 98.3797C229.552 98.7913 220.496 99.2029 218.438 98.3797C216.379 97.5564 213.91 95.9099 214.321 90.9703C214.651 87.0187 216.654 76.1516 217.614 71.2121C218.163 68.4679 221.648 63.0618 231.198 63.3911ZM97.418 69.9771L93.7133 92.2052H98.6529C100.437 92.2052 104.251 90.8879 105.239 85.6191C106.227 80.3502 106.748 76.5632 106.885 75.3283C107.023 73.5446 106.309 69.9771 102.358 69.9771H97.418ZM126.644 70.3888L125.409 79.033H130.76C131.995 79.033 134.712 78.1274 135.7 74.5051C136.687 70.8827 132.818 69.9771 130.76 69.9771C128.702 69.9771 126.644 70.3888 126.644 70.3888Z" fill="#F36C36"/>
<path fill-rule="evenodd" clip-rule="evenodd" d="M176.039 0C175.765 0 175.134 0.082326 174.805 0.41163C174.475 0.740934 173.57 2.19536 173.158 2.88141H187.565C187.565 1.92094 187.236 0 185.919 0H176.039ZM169.865 7.82097L171.923 4.93956H187.977L188.8 7.82097H169.865ZM168.219 10.7024L166.16 13.9954H190.035L189.212 10.7024H168.219ZM140.228 57.6281C138.581 57.6281 138.993 56.2561 139.404 55.5701L163.279 18.5234H190.858C193.054 30.4606 197.527 54.6645 197.856 55.9817C198.185 57.2989 197.17 57.6282 196.621 57.6282H183.037C182.049 57.6282 181.528 56.805 181.391 56.3933L176.451 26.756C176.451 26.2071 176.204 25.1094 175.216 25.1094C174.228 25.1094 173.707 25.6583 173.57 25.9327C167.944 35.4002 156.528 54.6645 155.87 55.9817C155.211 57.2989 154.498 57.6282 154.223 57.6281H140.228ZM83.8343 22.6396C82.8739 22.6396 80.8706 23.2981 80.5413 25.9326C80.212 28.5671 76.5622 47.3374 74.7785 56.3932C74.6413 56.8049 74.6962 57.6281 76.0134 57.6281H81.7762C82.0506 57.6281 82.6818 57.2988 83.0111 55.9816C83.3404 54.6644 84.5204 48.0234 85.0692 44.8676H88.7739L92.8902 56.8049C93.0274 57.0793 93.4665 57.6281 94.1251 57.6281H101.534C101.809 57.4909 102.275 57.0518 101.946 56.3932C101.617 55.7346 98.5158 47.3374 97.0065 43.2211C99.6135 42.3978 104.91 38.7755 105.239 30.8722C105.651 20.993 89.5972 21.8165 83.8343 22.6396ZM46.376 36.2234C48.0225 24.3685 58.7249 22.0908 63.6645 22.228C66.1342 22.228 75.1901 23.4628 74.7785 33.3419C74.3669 48.9839 69.0157 58.0398 57.0784 58.0398C45.1411 58.0398 44.3179 51.0421 46.376 36.2234ZM0.273276 57.2166L4.80121 30.4606C5.21284 27.7164 8.2589 22.228 17.1501 22.228C26.0413 22.228 27.9897 23.3257 27.8525 23.8745L26.6176 28.4025C26.4804 28.6769 25.959 29.2257 24.9711 29.2257H14.6803C14.2687 29.3629 13.2808 30.1313 12.6222 32.1071C11.9636 34.083 11.7989 35.8118 11.7989 36.6351H23.7362C24.0106 36.6351 24.5595 36.7997 24.5595 37.4583C24.5595 38.1169 24.0106 40.7514 23.7362 41.9863C23.599 42.3979 22.9953 43.2212 21.678 43.2212H10.564L8.09425 56.3933C7.95704 56.8049 7.43564 57.6282 6.44773 57.6282H0.684906C0.524476 57.6282 0.217548 57.5459 0.273276 57.2166ZM32.7922 22.6396C32.2434 22.6396 31.5573 23.0513 31.1457 23.8745C30.7341 25.1094 26.6178 49.3956 26.6178 51.0421C26.6178 52.6886 27.441 58.0398 35.6736 58.0398C40.6132 58.0398 41.8481 57.6282 41.8481 57.2166C41.8481 56.8873 42.3969 53.7863 42.6713 52.277C42.6713 51.8654 42.5067 51.0421 41.8481 51.0421H36.4969C35.8108 51.0421 34.5211 50.5482 34.8504 48.5723C35.1797 46.5965 38.0062 31.2839 39.3783 23.8745C39.3783 23.4629 39.2136 22.6396 38.555 22.6396H32.7922ZM110.59 23.8745C110.59 22.8866 111.414 22.6397 111.825 22.6396H117.588C118.905 22.6396 118.96 23.7373 118.823 24.2862C116.902 34.8513 113.06 56.1463 113.06 56.8049C113.06 57.4635 112.237 57.6281 111.825 57.6281H105.651C104.992 57.6281 105.102 56.2561 105.239 55.5701C107.023 45.4165 110.59 24.8625 110.59 23.8745ZM134.703 22.2279C127.718 22.2258 124.815 22.2249 124.174 25.1094L118.823 55.9817C118.686 56.5306 118.658 57.6283 119.646 57.6282L125.821 57.6281C126.095 57.6282 126.726 57.2989 127.056 55.9817C127.385 54.6645 128.29 48.2979 128.702 45.2793H135.288C139.542 45.2793 148.213 42.3979 148.872 30.8723C149.284 23.0513 141.051 22.1549 135.288 22.228L134.703 22.2279ZM86.3042 38.2817L87.9508 29.2258C90.9694 28.8142 97.0066 28.9788 97.0066 32.9305C97.0066 36.8821 93.4392 38.1445 91.6554 38.2817H86.3042ZM54.6087 37.8699C55.5966 30.6252 59.9599 29.0886 62.0181 29.2258C63.8018 29.363 67.2869 30.6252 66.9576 34.5769C65.7227 46.5141 62.8413 51.0422 57.9018 51.0422C52.9622 51.0422 53.3738 46.9258 54.6087 37.8699ZM131.584 29.2258L129.937 38.6933H135.7C137.346 38.4189 140.639 36.7175 140.639 32.1072C140.639 29.2258 136.523 28.8142 131.584 29.2258Z" fill="white"/>
<path fill-rule="evenodd" clip-rule="evenodd" d="M30.1136 111.963H36.9083L32.1403 138.844C32.0508 139.348 32.4387 139.811 32.9509 139.811H39.9229C40.3221 139.811 40.6638 139.524 40.7335 139.131L45.5525 111.963H52.2645C52.6669 111.963 53.0104 111.672 53.0765 111.275L54.037 105.513C54.1206 105.011 53.7337 104.554 53.225 104.554H31.3943C31.0084 104.554 30.6743 104.822 30.5906 105.199L29.31 110.961C29.1957 111.476 29.587 111.963 30.1136 111.963ZM83.7133 105.645L79.7802 127.75C79.3938 129.732 79.4225 132.755 80.988 135.494C82.7207 138.526 85.9599 140.56 90.6636 140.774C100.245 141.209 105.27 133.702 106.363 129.327C106.385 129.242 106.403 129.155 106.418 129.069L110.816 105.943C110.912 105.435 110.523 104.966 110.007 104.966H103.471C103.067 104.966 102.722 105.259 102.658 105.659L99.1464 127.639C98.5333 129.866 95.8281 133.591 91 133.372C88.459 133.256 87.7191 132.34 87.4211 131.818C86.9686 131.026 86.9026 129.918 87.0552 129.155C87.0609 129.126 87.0663 129.098 87.0714 129.069L91.4693 105.943C91.5658 105.435 91.1769 104.966 90.6605 104.966H84.5239C84.1248 104.966 83.7832 105.252 83.7133 105.645ZM67.8336 104.56C62.8941 104.422 52.1917 106.7 50.5452 118.555C48.487 133.374 49.3103 140.371 61.2475 140.371C73.1848 140.371 78.536 131.316 78.9476 115.674C79.3593 105.794 70.3034 104.56 67.8336 104.56ZM66.1872 111.557C64.1291 111.42 59.7658 112.957 58.7779 120.202C57.543 129.257 57.1314 133.374 62.0709 133.374C67.0105 133.374 69.8919 128.846 71.1268 116.909C71.4561 112.957 67.971 111.695 66.1872 111.557ZM117.227 105.011C116.267 105.011 114.264 105.669 113.934 108.304C113.605 110.938 109.955 129.708 108.172 138.764C108.034 139.176 108.089 139.999 109.406 139.999H115.169C115.444 139.999 116.075 139.67 116.404 138.353C116.734 137.035 117.914 130.394 118.462 127.239H122.167L126.283 139.176C126.421 139.45 126.86 139.999 127.518 139.999H134.928C135.202 139.862 135.668 139.423 135.339 138.764C135.01 138.106 131.909 129.708 130.4 125.592C133.007 124.769 138.303 121.146 138.632 113.243C139.044 103.364 122.99 104.187 117.227 105.011ZM119.697 120.653L121.344 111.597C124.363 111.185 130.4 111.35 130.4 115.301C130.4 119.253 126.832 120.515 125.049 120.653H119.697Z" fill="white"/>
</svg>
