<svg width="138" height="85" viewBox="0 0 138 85" fill="none" xmlns="http://www.w3.org/2000/svg">
<mask id="mask0_131_308" style="mask-type:alpha" maskUnits="userSpaceOnUse" x="0" y="0" width="138" height="85">
<path d="M130.303 84.5486H108.679C104.434 84.5486 100.983 81.0971 100.983 76.8529V62.406C100.983 61.5581 101.668 60.8727 102.516 60.8727C103.364 60.8727 104.05 61.5581 104.05 62.406V76.8544C104.05 79.4059 106.126 81.4835 108.679 81.4835H130.305C132.856 81.4835 134.934 79.4074 134.934 76.8544V22.0414C134.934 19.4884 132.857 17.4123 130.305 17.4123H108.679C106.127 17.4123 104.05 19.4884 104.05 22.0414V30.1496C104.05 30.996 103.364 31.6829 102.516 31.6829C101.668 31.6829 100.983 30.996 100.983 30.1496V22.0414C100.983 17.7972 104.434 14.3457 108.679 14.3457H130.305C134.549 14.3457 138 17.7972 138 22.0414V76.8544C137.999 81.0971 134.547 84.5486 130.303 84.5486Z" fill="black"/>
<path d="M120.896 25.6188H118.086C117.238 25.6188 116.552 24.9318 116.552 24.0854C116.552 23.239 117.238 22.5521 118.086 22.5521H120.896C121.744 22.5521 122.429 23.239 122.429 24.0854C122.429 24.9318 121.743 25.6188 120.896 25.6188Z" fill="black"/>
<path d="M123.516 76.5984H115.466C114.618 76.5984 113.933 75.913 113.933 75.0651C113.933 74.2171 114.618 73.5317 115.466 73.5317H123.516C124.364 73.5317 125.05 74.2171 125.05 75.0651C125.05 75.913 124.363 76.5984 123.516 76.5984Z" fill="black"/>
<path d="M91.3412 84.5485H8.9929C4.03415 84.5485 0 80.5144 0 75.5556V69.4193C0 68.5714 0.686926 67.886 1.53332 67.886H49.9922C50.5289 67.886 51.0257 68.1666 51.3032 68.625L53.6354 72.4798H74.4916L76.8238 68.625C77.1013 68.1651 77.5996 67.886 78.1347 67.886H91.3412C92.1891 67.886 92.8745 68.5714 92.8745 69.4193C92.8745 70.2672 92.1891 70.9526 91.3412 70.9526H78.998L76.6658 74.8074C76.3883 75.2674 75.89 75.5464 75.3548 75.5464H52.7721C52.2355 75.5464 51.7387 75.2658 51.4612 74.8074L49.129 70.9526H3.06663V75.5556C3.06663 78.8231 5.7254 81.4819 8.9929 81.4819H91.3412C92.1891 81.4819 92.8745 82.1673 92.8745 83.0152C92.8745 83.8631 92.1891 84.5485 91.3412 84.5485Z" fill="black"/>
<path d="M7.43029 70.9527C6.5839 70.9527 5.89697 70.2673 5.89697 69.4194V5.75454C5.89697 2.58057 8.47908 0 11.653 0H116.475C119.649 0 122.231 2.5821 122.231 5.75454C122.231 6.60093 121.546 7.28785 120.698 7.28785C119.85 7.28785 119.165 6.60093 119.165 5.75454C119.165 4.27182 117.958 3.06663 116.475 3.06663H11.653C10.1703 3.06663 8.96361 4.27335 8.96361 5.75454V69.4194C8.96361 70.2673 8.27668 70.9527 7.43029 70.9527Z" fill="black"/>
<path d="M65.5584 12.5226H62.5685C61.7221 12.5226 61.0352 11.8356 61.0352 10.9892C61.0352 10.1429 61.7221 9.45593 62.5685 9.45593H65.5584C66.4048 9.45593 67.0918 10.1429 67.0918 10.9892C67.0918 11.8356 66.4048 12.5226 65.5584 12.5226Z" fill="black"/>
<path d="M113.153 41.7889H89.6593C88.8114 41.7889 88.126 41.102 88.126 40.2556C88.126 39.4092 88.8114 38.7223 89.6593 38.7223H113.153C114.001 38.7223 114.686 39.4092 114.686 40.2556C114.686 41.102 114.001 41.7889 113.153 41.7889Z" fill="black"/>
<path d="M112.795 44.5275L119.12 40.8751C119.597 40.5991 119.597 39.9106 119.12 39.6347L112.795 35.9823C112.319 35.7063 111.722 36.0513 111.722 36.6018V43.9065C111.721 44.4585 112.317 44.8035 112.795 44.5275Z" fill="black"/>
<path d="M106.396 54.0556H82.899C82.0511 54.0556 81.3657 53.3703 81.3657 52.5223C81.3657 51.6744 82.0511 50.989 82.899 50.989H106.394C107.242 50.989 107.927 51.6744 107.927 52.5223C107.927 53.3703 107.242 54.0556 106.396 54.0556Z" fill="black"/>
<path d="M83.2578 48.2488L76.9328 51.9012C76.456 52.1772 76.456 52.8657 76.9328 53.1417L83.2578 56.794C83.7346 57.07 84.3311 56.725 84.3311 56.1746V48.8698C84.3311 48.3178 83.7346 47.9744 83.2578 48.2488Z" fill="black"/>
</mask>
<g mask="url(#mask0_131_308)">
<rect width="138.053" height="84.5779" fill="url(#paint0_linear_131_308)"/>
</g>
<defs>
<linearGradient id="paint0_linear_131_308" x1="138.053" y1="0" x2="23.201" y2="103.881" gradientUnits="userSpaceOnUse">
<stop stop-color="#31783C"/>
<stop offset="1" stop-color="#07C80E"/>
</linearGradient>
</defs>
</svg>
