<svg width="138" height="85" viewBox="0 0 138 85" fill="none" xmlns="http://www.w3.org/2000/svg">
<path fill-rule="evenodd" clip-rule="evenodd" d="M3.06663 70.9526H7.41735L7.43029 70.9527L7.44323 70.9526H49.129L51.4612 74.8074C51.7387 75.2658 52.2355 75.5464 52.7721 75.5464H75.3548C75.89 75.5464 76.3883 75.2674 76.6658 74.8074L78.998 70.9526H91.3412C92.1891 70.9526 92.8745 70.2672 92.8745 69.4193C92.8745 68.5714 92.1891 67.886 91.3412 67.886H78.1347C77.5996 67.886 77.1013 68.1651 76.8238 68.625L74.4916 72.4798H53.6354L51.3032 68.625C51.0257 68.1666 50.5289 67.886 49.9922 67.886H8.9636V5.75454C8.9636 4.27335 10.1703 3.06663 11.653 3.06663H116.475C117.958 3.06663 119.165 4.27182 119.165 5.75454C119.165 6.60093 119.85 7.28785 120.698 7.28785C121.546 7.28785 122.231 6.60093 122.231 5.75454C122.231 2.5821 119.649 0 116.475 0H11.653C8.47908 0 5.89697 2.58057 5.89697 5.75454V67.886H1.53332C0.686926 67.886 0 68.5714 0 69.4193V75.5556C0 80.5144 4.03415 84.5485 8.9929 84.5485H91.3412C92.1891 84.5485 92.8745 83.8631 92.8745 83.0152C92.8745 82.1673 92.1891 81.4819 91.3412 81.4819H8.9929C5.7254 81.4819 3.06663 78.8231 3.06663 75.5556V70.9526ZM108.679 84.5486H130.303C134.547 84.5486 137.999 81.0971 138 76.8544V22.0414C138 17.7972 134.549 14.3457 130.305 14.3457H108.679C104.434 14.3457 100.983 17.7972 100.983 22.0414V30.1496C100.983 30.996 101.668 31.6829 102.516 31.6829C103.364 31.6829 104.05 30.996 104.05 30.1496V22.0414C104.05 19.4884 106.127 17.4123 108.679 17.4123H130.305C132.857 17.4123 134.934 19.4884 134.934 22.0414V76.8544C134.934 79.4074 132.856 81.4835 130.305 81.4835H108.679C106.126 81.4835 104.05 79.4059 104.05 76.8544V62.406C104.05 61.5581 103.364 60.8727 102.516 60.8727C101.668 60.8727 100.983 61.5581 100.983 62.406V76.8529C100.983 81.0971 104.434 84.5486 108.679 84.5486ZM118.086 25.6188H120.896C121.743 25.6188 122.429 24.9318 122.429 24.0854C122.429 23.239 121.744 22.5521 120.896 22.5521H118.086C117.238 22.5521 116.552 23.239 116.552 24.0854C116.552 24.9318 117.238 25.6188 118.086 25.6188ZM123.516 76.5984H115.466C114.618 76.5984 113.933 75.913 113.933 75.0651C113.933 74.2171 114.618 73.5317 115.466 73.5317H123.516C124.364 73.5317 125.05 74.2171 125.05 75.0651C125.05 75.913 124.363 76.5984 123.516 76.5984ZM62.5685 12.5226H65.5584C66.4048 12.5226 67.0918 11.8356 67.0918 10.9892C67.0918 10.1429 66.4048 9.45593 65.5584 9.45593H62.5685C61.7221 9.45593 61.0352 10.1429 61.0352 10.9892C61.0352 11.8356 61.7221 12.5226 62.5685 12.5226ZM111.722 41.7889H89.6593C88.8114 41.7889 88.126 41.102 88.126 40.2556C88.126 39.4092 88.8114 38.7223 89.6593 38.7223H111.722V36.6017C111.722 36.0513 112.319 35.7063 112.796 35.9823L119.12 39.6347C119.597 39.9106 119.597 40.5991 119.12 40.8751L112.796 44.5275C112.317 44.8035 111.721 44.4585 111.722 43.9065V41.7889ZM84.3311 50.989V48.8698C84.3311 48.3178 83.7346 47.9744 83.2578 48.2488L76.9328 51.9012C76.456 52.1772 76.456 52.8657 76.9328 53.1417L83.2578 56.794C83.7346 57.07 84.3311 56.725 84.3311 56.1746V54.0556H106.396C107.242 54.0556 107.927 53.3703 107.927 52.5223C107.927 51.6744 107.242 50.989 106.394 50.989H84.3311Z" fill="url(#paint0_linear_247_152)"/>
<defs>
<linearGradient id="paint0_linear_247_152" x1="138" y1="0" x2="23.1883" y2="103.841" gradientUnits="userSpaceOnUse">
<stop stop-color="#31783C"/>
<stop offset="1" stop-color="#07C80E"/>
</linearGradient>
</defs>
</svg>
