<svg width="41" height="64" viewBox="0 0 41 64" fill="none" xmlns="http://www.w3.org/2000/svg">
<path d="M8.24049 34.94C6.46284 36.1047 2.90754 39.6477 2.90754 44.5026C3.03013 49.1612 6.18087 58.4786 17.803 58.4786C32.3307 58.4786 34.7214 44.5026 34.7214 40.8247C34.7214 37.1468 34.5375 34.2045 29.7562 27.2164C24.9749 20.2284 22.2165 14.8955 22.2165 11.0337C22.2165 8.36919 22.8548 6.4251 23.3057 5.50814C23.3681 5.37438 23.4346 5.25462 23.5038 5.14905C23.4448 5.24179 23.3776 5.36191 23.3057 5.50814C22.318 7.62668 22.3766 13.2585 29.5723 21.6996C39.1348 32.9172 40.0083 39.1696 40.606 43.9509C41.1577 48.3644 38.2154 63.2599 21.297 63.2599C14.309 63.2599 0.333008 58.6993 0.333008 45.6059C0.333008 42.7862 1.62027 37.6985 8.24049 34.94Z" fill="white"/>
<path d="M19.458 13.7921C19.458 4.52379 25.9557 0.735549 29.2045 -3.05176e-05C16.3318 2.3906 13.0217 14.1599 17.0674 20.7801C19.81 25.268 19.0902 30.5265 12.47 30.5265C7.17385 30.5265 4.19475 33.8979 3.64307 35.3078C4.81999 33.9838 8.24044 33.1011 9.52771 33.1011C15.2284 33.1011 19.458 38.2501 19.458 41.0085C19.458 45.7898 21.297 48.5482 24.4232 48.5482C27.5494 48.5482 29.94 47.5552 29.94 40.6408C29.94 31.9977 19.458 22.8029 19.458 13.7921Z" fill="#777777"/>
<path d="M31.797 13.7048C34.0038 13.7048 35.5362 15.4211 36.0266 16.2793C36.0266 14.8081 33.6888 10.2311 29.9581 11.6819C23.3379 14.2565 26.4641 20.6928 29.9581 30.2553C32.7533 37.9053 32.5326 42.2698 32.1649 43.3119C33.9303 41.3994 34.5378 38.434 34.5378 37.5145C34.5378 36.595 33.8022 34.5722 33.8022 34.5722C33.6551 37.8087 33.5747 39.5727 33.0843 40.1856C34.3716 34.8527 27.9353 24.1868 28.303 19.4055C28.5146 16.6552 29.4064 13.7048 31.797 13.7048Z" fill="#AAAAAA"/>
</svg>
