<svg width="157" height="247" viewBox="0 0 157 247" fill="none" xmlns="http://www.w3.org/2000/svg">
<path fill-rule="evenodd" clip-rule="evenodd" d="M74.4445 53.6859C74.4445 17.609 99.7365 2.86325 112.383 0C62.2757 9.30556 49.3911 55.1175 65.139 80.8868C75.8145 98.3558 73.0129 118.825 47.2437 118.825C26.6283 118.825 15.0322 131.948 12.8848 137.436C17.4659 132.282 30.78 128.846 35.7907 128.846C57.9809 128.846 74.4445 148.889 74.4445 159.626C74.4445 178.237 81.6026 188.974 93.7714 188.974C105.94 188.974 115.246 185.109 115.246 158.195C115.246 141.548 105.257 124.376 95.1639 107.025C84.8585 89.3088 74.4445 71.406 74.4445 53.6859ZM30.7799 136.004C23.8604 140.538 10.0214 154.329 10.0214 173.227C10.4986 191.36 22.7628 227.628 68.0021 227.628C124.551 227.628 133.857 173.227 133.857 158.91C133.857 154.477 133.788 150.318 133.141 145.881C133.142 145.93 133.142 145.978 133.142 146.026C133.142 149.605 130.777 161.148 123.905 168.592C125.337 164.536 126.196 147.547 115.316 117.769C114.125 114.51 112.945 111.343 111.8 108.272C109.919 103.224 108.133 98.4327 106.552 93.9074C92.8851 72.5226 85.1816 55.6813 85.1816 42.9487C85.1816 32.5772 87.6662 25.0098 89.4213 21.4405C86.3412 28.0473 85.8752 43.4319 100.215 66.1851C100.262 56.7104 104.36 49.7328 115.316 45.4722C129.837 39.8249 138.937 57.641 138.937 63.3675C137.029 60.0271 131.063 53.3462 122.474 53.3462C113.168 53.3462 109.697 64.8308 108.873 75.5363C108.804 76.4346 108.797 77.3862 108.845 78.3862C110.395 80.3689 112.049 82.3956 113.814 84.4658C151.036 128.13 154.436 152.468 156.763 171.079C158.91 188.259 147.457 246.239 81.6025 246.239C54.4017 246.239 0 228.487 0 177.521C0 166.546 5.01068 146.741 30.7799 136.004ZM118.17 111.411C124.105 127.881 130.196 145.191 127.485 156.423C129.392 154.038 129.706 147.178 130.278 134.592C127.996 128.25 124.265 120.853 118.17 111.411ZM90.1922 20.0427C89.923 20.4536 89.664 20.9198 89.4213 21.4405C89.7012 20.8713 89.9625 20.4037 90.1922 20.0427Z" fill="black"/>
</svg>
