<svg width="231" height="114" viewBox="0 0 231 114" fill="none" xmlns="http://www.w3.org/2000/svg">
<path fill-rule="evenodd" clip-rule="evenodd" d="M29.1482 0H0V113.597H29.9561L55.7886 87.4606L80.9377 113.597H111.417V0H81.7241L55.7886 26.9532L29.1482 0ZM55.7886 26.9532L81.7241 53.9064H29.1482L55.7886 26.9532Z" fill="white"/>
<path d="M119.741 113.188V91.2585H128.106C129.672 91.2585 131.029 91.5718 132.178 92.1984C133.347 92.825 134.245 93.6812 134.872 94.7672C135.52 95.8533 135.843 97.096 135.843 98.4952C135.843 99.8111 135.52 101.001 134.872 102.067C134.245 103.132 133.347 103.978 132.178 104.604C131.029 105.231 129.672 105.544 128.106 105.544H125.13V113.188H119.741ZM125.13 101.221H127.166C128.252 101.221 129.056 100.96 129.578 100.438C130.121 99.8945 130.393 99.2367 130.393 98.4639C130.393 97.6702 130.121 97.0124 129.578 96.4902C129.056 95.9682 128.252 95.7071 127.166 95.7071H125.13V101.221Z" fill="white"/>
<path d="M139.215 113.188V91.2585H144.604V108.677H154.503V113.188H139.215Z" fill="white"/>
<path d="M165.236 113.532C163.606 113.532 162.186 113.198 160.976 112.53C159.764 111.862 158.824 110.922 158.156 109.711C157.487 108.499 157.154 107.079 157.154 105.45V91.2585H162.541V105.45C162.541 106.432 162.782 107.225 163.262 107.831C163.743 108.416 164.4 108.708 165.236 108.708C166.071 108.708 166.73 108.416 167.21 107.831C167.689 107.225 167.93 106.432 167.93 105.45V91.2585H173.319V105.45C173.319 107.079 172.984 108.499 172.315 109.711C171.648 110.922 170.707 111.862 169.497 112.53C168.306 113.198 166.885 113.532 165.236 113.532Z" fill="white"/>
<path d="M176.563 113.188V91.2585H184.865C186.368 91.2585 187.705 91.5509 188.876 92.1357C190.045 92.7205 190.953 93.5351 191.6 94.5793C192.269 95.6236 192.604 96.8348 192.604 98.2133C192.604 99.6126 192.259 100.845 191.569 101.91C190.88 102.954 189.951 103.758 188.782 104.322L193.418 113.188H187.747L183.799 105.168H181.952V113.188H176.563ZM181.952 100.907H184.364C185.199 100.907 185.868 100.667 186.368 100.187C186.891 99.7066 187.152 99.08 187.152 98.3073C187.152 97.5137 186.891 96.8871 186.368 96.4276C185.868 95.9472 185.199 95.7071 184.364 95.7071H181.952V100.907Z" fill="white"/>
<path d="M193.75 113.188L200.047 91.2585H206.187L212.484 113.188H207.127L206.03 108.896H200.016L198.888 113.188H193.75ZM201.112 104.729H204.965L203.055 97.2421L201.112 104.729Z" fill="white"/>
<path d="M214.979 113.188V91.2585H220.368V108.677H230.267V113.188H214.979Z" fill="white"/>
<path d="M119.318 88.6706V66.8774H125.202L130.35 76.1395L134.641 66.8774H140.566V88.6706H134.641V78.4551L131.67 83.3586H130.35H128.767L125.202 78.4551L125.161 88.6706H119.318Z" fill="white"/>
<path d="M143.017 88.6705L149.314 66.7412H155.454L161.75 88.6705H156.394L155.298 84.3786H149.283L148.154 88.6705H143.017ZM150.379 80.212H154.233L152.321 72.7248L150.379 80.212Z" fill="white"/>
<path d="M162.358 88.6705L168.938 77.2359L162.891 66.7412H168.687L171.851 72.5368L175.046 66.7412H180.623L174.546 77.2672L181.155 88.6705H175.329L171.632 81.9664L167.935 88.6705H162.358Z" fill="white"/>
</svg>
