<svg width="128" height="138" viewBox="0 0 128 138" fill="none" xmlns="http://www.w3.org/2000/svg">
<mask id="mask0_131_238" style="mask-type:alpha" maskUnits="userSpaceOnUse" x="0" y="0" width="128" height="138">
<path d="M54.0493 88.0987C49.897 88.0987 45.921 85.722 44.0887 81.7031C41.5878 76.2198 44.0135 69.723 49.4968 67.2206C52.1541 66.0078 55.1242 65.9019 57.8596 66.9262C60.5951 67.9474 62.7694 69.9745 63.9808 72.6303C65.1921 75.286 65.2964 78.2561 64.2752 80.9916C63.254 83.7271 61.2269 85.9014 58.5711 87.1127C57.1037 87.7813 55.5642 88.0971 54.0493 88.0987ZM54.0293 72.365C53.3516 72.365 52.6754 72.5107 52.0406 72.8005C49.6332 73.8984 48.5691 76.7504 49.667 79.1577C50.199 80.3246 51.1528 81.2139 52.3534 81.6617C53.554 82.1079 54.8574 82.0634 56.0227 81.5329C57.1896 80.9993 58.0789 80.0455 58.5267 78.8449C58.9744 77.6443 58.9299 76.341 58.3979 75.1756C57.8658 74.0088 56.912 73.1194 55.7114 72.6701C55.164 72.4677 54.5967 72.365 54.0293 72.365Z" fill="#CC1B1B"/>
<path d="M65.6885 111.153C65.3757 111.153 65.0567 111.104 64.7424 111.001C63.1309 110.478 62.2492 108.748 62.7705 107.138L79.8459 54.4709C80.3688 52.8609 82.0953 51.9777 83.7084 52.499C85.3199 53.0204 86.2016 54.75 85.6787 56.3615L68.6049 109.03C68.1848 110.328 66.9811 111.153 65.6885 111.153Z" fill="#CC1B1B"/>
<path d="M93.3916 97.739C89.2377 97.739 85.2618 95.3623 83.4309 91.3449C82.2181 88.6892 82.1138 85.7191 83.135 82.9836C84.1578 80.2481 86.1833 78.0738 88.8391 76.8625C94.3208 74.357 100.819 76.7843 103.32 82.2706C105.822 87.7554 103.395 94.2506 97.9119 96.7515C96.446 97.4231 94.908 97.739 93.3916 97.739ZM93.3732 82.0099C92.6954 82.0099 92.0192 82.1556 91.3844 82.4439C90.2175 82.9775 89.3282 83.9312 88.8805 85.1318C88.4312 86.3324 88.4772 87.6358 89.0093 88.8011C90.1071 91.2085 92.9576 92.2757 95.3665 91.1763C97.7739 90.0769 98.838 87.2264 97.7417 84.819C97.2081 83.6521 96.2543 82.7628 95.0537 82.3151C94.5078 82.1111 93.939 82.0099 93.3732 82.0099Z" fill="#CC1B1B"/>
<path d="M61.5899 138C59.8649 138 58.1368 137.692 56.4716 137.071C52.8161 135.705 49.912 132.998 48.2928 129.449L16.9419 60.7209C14.2448 54.8052 14.07 47.9466 16.462 41.9021L29.3912 9.24182C32.2907 1.91703 40.3868 -1.77527 47.8159 0.837552L80.9546 12.4833C87.088 14.6377 92.1511 19.2668 94.8513 25.1825L126.201 93.9086C127.821 97.4583 127.959 101.428 126.596 105.082C125.23 108.738 122.524 111.642 118.974 113.261L67.6467 136.675C65.7116 137.557 63.6538 138 61.5899 138ZM42.9521 6.13526C39.5711 6.13526 36.4078 8.17002 35.0922 11.4974L22.163 44.1577C20.3812 48.6596 20.5116 53.7687 22.5218 58.174L53.8726 126.902C54.811 128.962 56.4962 130.531 58.6168 131.324C60.7359 132.117 63.0374 132.037 65.0982 131.097L116.425 107.683C118.486 106.743 120.055 105.058 120.848 102.938C121.64 100.818 121.559 98.5163 120.621 96.4555L89.2714 27.7278C87.2612 23.321 83.4877 19.874 78.9213 18.2686L45.7827 6.62134C44.8458 6.2932 43.8905 6.13526 42.9521 6.13526Z" fill="#CC1B1B"/>
<path d="M46.1983 27.2662C49.2774 27.2662 51.7735 24.7701 51.7735 21.691C51.7735 18.6118 49.2774 16.1157 46.1983 16.1157C43.1192 16.1157 40.623 18.6118 40.623 21.691C40.623 24.7701 43.1192 27.2662 46.1983 27.2662Z" fill="#CC1B1B"/>
<path d="M39.5036 133.78H14.6036C6.55199 133.78 0 127.228 0 119.175V43.6625C0 37.1641 2.68642 30.8514 7.3708 26.3448L17.3314 16.766C18.552 15.59 20.4947 15.6314 21.6662 16.8504C22.8407 18.0709 22.8024 20.0121 21.5819 21.1851L11.6228 30.764C8.1344 34.1204 6.13339 38.8202 6.13339 43.6609V119.175C6.13339 123.847 9.93302 127.647 14.6036 127.647H39.5036C41.1964 127.647 42.5703 129.019 42.5703 130.714C42.5688 132.408 41.1964 133.78 39.5036 133.78Z" fill="#CC1B1B"/>
</mask>
<g mask="url(#mask0_131_238)">
<rect width="130" height="146" fill="url(#paint0_linear_131_238)"/>
</g>
<defs>
<linearGradient id="paint0_linear_131_238" x1="130" y1="0" x2="-28.1331" y2="78.0229" gradientUnits="userSpaceOnUse">
<stop stop-color="#31783C"/>
<stop offset="1" stop-color="#07C80E"/>
</linearGradient>
</defs>
</svg>
