<svg width="128" height="138" viewBox="0 0 128 138" fill="none" xmlns="http://www.w3.org/2000/svg">
<path fill-rule="evenodd" clip-rule="evenodd" d="M56.4716 137.071C58.1368 137.692 59.8649 138 61.5899 138C63.6538 138 65.7116 137.557 67.6467 136.675L118.974 113.261C122.524 111.642 125.23 108.738 126.596 105.082C127.959 101.428 127.821 97.4583 126.201 93.9086L94.8513 25.1825C92.1511 19.2668 87.088 14.6377 80.9546 12.4833L47.8159 0.837552C40.3868 -1.77527 32.2907 1.91703 29.3912 9.24182L16.462 41.9021C14.07 47.9466 14.2448 54.8052 16.9419 60.7209L48.2928 129.449C49.912 132.998 52.8161 135.705 56.4716 137.071ZM35.0922 11.4974C36.4078 8.17002 39.5711 6.13526 42.9521 6.13526C43.8905 6.13526 44.8458 6.2932 45.7827 6.62133L78.9213 18.2686C83.4877 19.874 87.2612 23.321 89.2714 27.7279L120.621 96.4555C121.559 98.5163 121.64 100.818 120.848 102.938C120.055 105.058 118.486 106.743 116.425 107.683L65.0982 131.097C63.0374 132.037 60.7359 132.117 58.6168 131.324C56.4962 130.531 54.811 128.962 53.8726 126.902L22.5218 58.174C20.5116 53.7687 20.3812 48.6596 22.163 44.1577L35.0922 11.4974ZM64.7424 111.001C65.0567 111.104 65.3757 111.153 65.6885 111.153C66.9811 111.153 68.1848 110.328 68.6049 109.03L85.6787 56.3615C86.2016 54.75 85.3199 53.0204 83.7084 52.499C82.0953 51.9777 80.3688 52.8609 79.8459 54.4709L62.7705 107.138C62.2492 108.748 63.1309 110.478 64.7424 111.001ZM44.0887 81.7031C45.921 85.722 49.897 88.0987 54.0493 88.0987C55.5642 88.0971 57.1037 87.7813 58.5711 87.1127C61.2269 85.9014 63.254 83.7271 64.2752 80.9916C65.2964 78.2561 65.1921 75.286 63.9808 72.6303C62.7694 69.9745 60.5951 67.9474 57.8596 66.9262C55.1242 65.9019 52.1541 66.0077 49.4968 67.2206C44.0135 69.723 41.5878 76.2198 44.0887 81.7031ZM52.0406 72.8005C52.6754 72.5107 53.3516 72.365 54.0293 72.365C54.5967 72.365 55.164 72.4677 55.7114 72.6701C56.912 73.1194 57.8658 74.0087 58.3979 75.1756C58.9299 76.341 58.9744 77.6443 58.5267 78.8449C58.0789 80.0455 57.1896 80.9993 56.0227 81.5329C54.8574 82.0634 53.554 82.1079 52.3534 81.6617C51.1528 81.2139 50.199 80.3246 49.667 79.1577C48.5691 76.7504 49.6332 73.8984 52.0406 72.8005ZM93.3916 97.739C89.2377 97.739 85.2618 95.3623 83.4309 91.3449C82.2181 88.6892 82.1138 85.7191 83.135 82.9836C84.1578 80.2481 86.1833 78.0738 88.8391 76.8625C94.3208 74.357 100.819 76.7843 103.32 82.2706C105.822 87.7554 103.395 94.2506 97.9119 96.7515C96.446 97.4231 94.908 97.739 93.3916 97.739ZM93.3732 82.0099C92.6954 82.0099 92.0192 82.1556 91.3844 82.4439C90.2175 82.9775 89.3282 83.9312 88.8805 85.1318C88.4312 86.3324 88.4772 87.6358 89.0093 88.8011C90.1071 91.2085 92.9576 92.2757 95.3665 91.1763C97.7739 90.0769 98.838 87.2264 97.7417 84.819C97.2081 83.6521 96.2543 82.7628 95.0537 82.3151C94.5078 82.1111 93.939 82.0099 93.3732 82.0099ZM46.1983 27.2662C49.2774 27.2662 51.7735 24.7701 51.7735 21.691C51.7735 18.6118 49.2774 16.1157 46.1983 16.1157C43.1192 16.1157 40.623 18.6118 40.623 21.691C40.623 24.7701 43.1192 27.2662 46.1983 27.2662ZM14.6036 133.78H39.5036C41.1964 133.78 42.5688 132.408 42.5703 130.714C42.5703 129.019 41.1964 127.647 39.5036 127.647H14.6036C9.93302 127.647 6.13339 123.847 6.13339 119.175V43.6609C6.13339 38.8202 8.1344 34.1205 11.6228 30.764L21.5819 21.1851C22.8024 20.0121 22.8407 18.0709 21.6662 16.8504C20.4947 15.6314 18.552 15.59 17.3314 16.766L7.3708 26.3448C2.68642 30.8514 0 37.1641 0 43.6625V119.175C0 127.228 6.55199 133.78 14.6036 133.78Z" fill="url(#paint0_linear_247_181)"/>
<defs>
<linearGradient id="paint0_linear_247_181" x1="127.526" y1="0" x2="-25.2907" y2="78.2531" gradientUnits="userSpaceOnUse">
<stop stop-color="#31783C"/>
<stop offset="1" stop-color="#07C80E"/>
</linearGradient>
</defs>
</svg>
