<svg width="33" height="33" viewBox="0 0 33 33" fill="none" xmlns="http://www.w3.org/2000/svg">
<path d="M12.3598 31.6452V24.7478L23.2438 10.7068C23.3463 10.5632 23.4898 10.2265 23.2438 10.0294C22.9979 9.83236 22.6904 9.94732 22.5674 10.0294L9.03927 22.2845C8.77281 22.4898 8.15379 22.9004 7.80944 22.9004C7.46509 22.9004 7.09204 22.7772 6.94856 22.7156C5.37027 22.0792 2.05382 20.7326 1.41431 20.437C0.614917 20.0675 0 19.4517 0 18.4048C0 17.5672 0.7379 16.9473 1.10685 16.742L29.7005 0.29923C30.1104 0.0734239 31.164 -0.242704 32.0986 0.29923C33.0333 0.841163 33.062 2.1262 32.9595 2.70098C31.6887 11.0968 29.0856 28.1719 28.8396 29.305C28.5321 30.7214 27.4868 30.9062 27.1178 30.9062C26.8227 30.9062 26.4209 30.783 26.2569 30.7214L17.8326 27.3343L15.4959 31.6452C15.2909 32.0968 14.6842 33 13.8971 33C13.11 33 12.5443 32.0968 12.3598 31.6452Z" fill="#31783C"/>
</svg>
