<svg width="138" height="130" viewBox="0 0 138 130" fill="none" xmlns="http://www.w3.org/2000/svg">
<mask id="mask0_131_290" style="mask-type:alpha" maskUnits="userSpaceOnUse" x="0" y="0" width="138" height="130">
<path d="M80.9597 121.272H15.8991C15.0527 121.272 14.3657 120.587 14.3657 119.739C14.3657 118.891 15.0527 118.206 15.8991 118.206H80.9597C105.924 118.206 126.231 97.8969 126.231 72.9343C126.231 47.9717 105.924 27.6597 80.9597 27.6597H15.8991C15.0527 27.6597 14.3657 26.9727 14.3657 26.1263C14.3657 25.2799 15.0527 24.593 15.8991 24.593H80.9597C107.614 24.593 129.299 46.2774 129.299 72.9327C129.299 99.5866 107.615 121.272 80.9597 121.272Z" fill="black"/>
<path d="M80.9581 78.4313C79.5505 78.4313 78.1429 77.8946 77.0696 76.8228C74.926 74.6777 74.926 71.1879 77.0696 69.0443C79.2132 66.9007 82.7 66.8976 84.8482 69.0443C86.9918 71.1894 86.9918 74.6793 84.8482 76.8228C83.7779 77.8946 82.3673 78.4313 80.9581 78.4313ZM79.2393 71.2124C78.2917 72.1615 78.2917 73.7056 79.2393 74.6547C80.1899 75.6069 81.7325 75.5977 82.6816 74.6547C83.6292 73.7071 83.6292 72.1615 82.6816 71.2124C81.7309 70.2617 80.1884 70.2617 79.2393 71.2124Z" fill="black"/>
<path d="M72.0679 83.3578C71.6754 83.3578 71.2828 83.2076 70.9838 82.9086C70.3843 82.3091 70.3843 81.3385 70.9838 80.7405L77.0711 74.6531C77.6707 74.0536 78.6413 74.0536 79.2393 74.6531C79.8373 75.2527 79.8388 76.2233 79.2393 76.8213L73.152 82.9086C72.853 83.2076 72.4604 83.3578 72.0679 83.3578Z" fill="black"/>
<path d="M83.7656 71.6617C83.3731 71.6617 82.9806 71.5114 82.6816 71.2124C82.0821 70.6129 82.0821 69.6423 82.6816 69.0443L105.12 46.6055C105.72 46.006 106.69 46.006 107.288 46.6055C107.886 47.2051 107.888 48.1757 107.288 48.7737L84.8497 71.2124C84.5507 71.5114 84.1582 71.6617 83.7656 71.6617Z" fill="black"/>
<path d="M55.7169 99.7092H9.56214C8.71574 99.7092 8.02881 99.0238 8.02881 98.1759C8.02881 97.328 8.71574 96.6426 9.56214 96.6426H55.7184C56.5648 96.6426 57.2517 97.328 57.2517 98.1759C57.2517 99.0238 56.5648 99.7092 55.7169 99.7092Z" fill="black"/>
<path d="M106.204 99.7093C105.812 99.7093 105.419 99.5591 105.12 99.2601L102.13 96.2716C101.531 95.6721 101.531 94.7015 102.13 94.1035C102.73 93.5055 103.7 93.504 104.298 94.1035L107.288 97.092C107.888 97.6915 107.888 98.6621 107.288 99.2601C106.988 99.5606 106.595 99.7093 106.204 99.7093Z" fill="black"/>
<path d="M55.7169 49.2229H9.56214C8.71574 49.2229 8.02881 48.536 8.02881 47.6896C8.02881 46.8432 8.71574 46.1562 9.56214 46.1562H55.7184C56.5648 46.1562 57.2517 46.8432 57.2517 47.6896C57.2517 48.536 56.5648 49.2229 55.7169 49.2229Z" fill="black"/>
<path d="M80.9596 42.9931C80.1117 42.9931 79.4263 42.3061 79.4263 41.4597V37.2339C79.4263 36.3875 80.1117 35.7006 80.9596 35.7006C81.8075 35.7006 82.4929 36.3875 82.4929 37.2339V41.4597C82.4945 42.3061 81.8075 42.9931 80.9596 42.9931Z" fill="black"/>
<path d="M80.9596 110.167C80.1117 110.167 79.4263 109.481 79.4263 108.633V104.406C79.4263 103.558 80.1117 102.873 80.9596 102.873C81.8075 102.873 82.4929 103.558 82.4929 104.406V108.632C82.4945 109.481 81.8075 110.167 80.9596 110.167Z" fill="black"/>
<path d="M116.659 74.4661H112.434C111.586 74.4661 110.901 73.7807 110.901 72.9327C110.901 72.0848 111.586 71.3994 112.434 71.3994H116.659C117.506 71.3994 118.192 72.0848 118.192 72.9327C118.192 73.7807 117.506 74.4661 116.659 74.4661Z" fill="black"/>
<path d="M49.4867 74.4661H1.53333C0.686931 74.4661 0 73.7807 0 72.9327C0 72.0848 0.686931 71.3994 1.53333 71.3994H49.4867C50.3331 71.3994 51.02 72.0848 51.02 72.9327C51.02 73.7807 50.3346 74.4661 49.4867 74.4661Z" fill="black"/>
<path d="M80.9597 129.999C80.1118 129.999 79.4264 129.313 79.4264 128.465C79.4264 127.617 80.1118 126.932 80.9597 126.932C95.3838 126.932 108.945 121.315 119.143 111.116C140.197 90.0616 140.197 55.804 119.143 34.7483C110.924 26.5312 100.516 21.2734 89.0434 19.5438C88.2937 19.4303 87.7386 18.7863 87.7386 18.0274V11.9768C87.7386 11.1304 88.424 10.4435 89.2719 10.4435H93.7492V3.06666H68.1687V10.445H72.646C73.494 10.445 74.1794 11.132 74.1794 11.9784V18.0289C74.1794 18.8753 73.494 19.5622 72.646 19.5622C71.7981 19.5622 71.1127 18.8753 71.1127 18.0289V13.5132H66.6354C65.789 13.5132 65.1021 12.8263 65.1021 11.9799V1.53333C65.1021 0.686931 65.789 0 66.6354 0H95.2841C96.132 0 96.8174 0.686931 96.8174 1.53333V11.9784C96.8174 12.8248 96.132 13.5117 95.2841 13.5117H90.8068V16.724C102.416 18.7434 112.937 24.2067 121.312 32.5802C143.562 54.8303 143.562 91.0353 121.312 113.284C110.533 124.063 96.2041 129.999 80.9597 129.999Z" fill="black"/>
</mask>
<g mask="url(#mask0_131_290)">
<rect x="-1.09131" width="139.146" height="129.869" fill="url(#paint0_linear_131_290)"/>
</g>
<defs>
<linearGradient id="paint0_linear_131_290" x1="138.054" y1="0" x2="-17.5571" y2="92.3876" gradientUnits="userSpaceOnUse">
<stop stop-color="#31783C"/>
<stop offset="1" stop-color="#07C80E"/>
</linearGradient>
</defs>
</svg>
