<svg width="138" height="130" viewBox="0 0 138 130" fill="none" xmlns="http://www.w3.org/2000/svg">
<path fill-rule="evenodd" clip-rule="evenodd" d="M79.4264 128.465C79.4264 129.313 80.1118 129.999 80.9597 129.999C96.2041 129.999 110.533 124.063 121.312 113.284C143.562 91.0353 143.562 54.8303 121.312 32.5802C112.937 24.2067 102.416 18.7434 90.8068 16.724V13.5117H95.2841C96.132 13.5117 96.8174 12.8248 96.8174 11.9784V1.53333C96.8174 0.686931 96.132 0 95.2841 0H66.6354C65.789 0 65.1021 0.686931 65.1021 1.53333V11.9799C65.1021 12.8263 65.789 13.5132 66.6354 13.5132H71.1127V18.0289C71.1127 18.8753 71.7981 19.5622 72.646 19.5622C73.494 19.5622 74.1794 18.8753 74.1794 18.0289V11.9784C74.1794 11.132 73.494 10.445 72.646 10.445H68.1687V3.06666H93.7492V10.4435H89.2719C88.424 10.4435 87.7386 11.1304 87.7386 11.9768V18.0274C87.7386 18.7863 88.2936 19.4303 89.0434 19.5438C100.516 21.2734 110.924 26.5312 119.143 34.7483C140.197 55.804 140.197 90.0616 119.143 111.116C108.945 121.315 95.3838 126.932 80.9597 126.932C80.1118 126.932 79.4264 127.617 79.4264 128.465ZM15.8991 121.272H80.9597C107.615 121.272 129.299 99.5866 129.299 72.9327C129.299 46.2774 107.614 24.593 80.9597 24.593H15.8991C15.0527 24.593 14.3657 25.2799 14.3657 26.1263C14.3657 26.9727 15.0527 27.6597 15.8991 27.6597H80.9597C105.924 27.6597 126.231 47.9717 126.231 72.9343C126.231 97.8969 105.924 118.206 80.9597 118.206H15.8991C15.0527 118.206 14.3657 118.891 14.3657 119.739C14.3657 120.587 15.0527 121.272 15.8991 121.272ZM79.2393 74.6531C79.2502 74.6641 79.261 74.6752 79.2715 74.6864C80.2245 75.6066 81.7431 75.5871 82.6816 74.6547C83.6286 73.7077 83.6292 72.1635 82.6834 71.2142L82.6816 71.2124L82.6793 71.2101C81.7285 70.2617 80.1876 70.2625 79.2393 71.2124C78.3029 72.1503 78.2918 73.6692 79.2061 74.6208L79.2249 74.6389L79.2393 74.6531ZM83.6113 68.1145C81.5204 66.9643 78.838 67.2759 77.0696 69.0443C75.3019 70.8119 74.992 73.4951 76.1396 75.5847L70.9838 80.7405C70.3843 81.3384 70.3843 82.3091 70.9838 82.9086C71.2828 83.2076 71.6754 83.3578 72.0679 83.3578C72.4604 83.3578 72.853 83.2076 73.152 82.9086L78.3076 77.7529C79.1301 78.205 80.0441 78.4313 80.9581 78.4313C82.3673 78.4313 83.7779 77.8946 84.8482 76.8228C86.6156 75.0555 86.9258 72.3729 85.7787 70.2834L107.288 48.7737C107.888 48.1757 107.886 47.2051 107.288 46.6055C106.69 46.006 105.72 46.006 105.12 46.6055L83.6113 68.1145ZM55.7169 99.7092H9.56214C8.71574 99.7092 8.02881 99.0238 8.02881 98.1759C8.02881 97.328 8.71574 96.6426 9.56214 96.6426H55.7184C56.5648 96.6426 57.2517 97.328 57.2517 98.1759C57.2517 99.0238 56.5648 99.7092 55.7169 99.7092ZM105.12 99.2601C105.419 99.5591 105.812 99.7093 106.204 99.7093C106.595 99.7093 106.988 99.5606 107.288 99.2601C107.888 98.6621 107.888 97.6915 107.288 97.0919L104.298 94.1035C103.7 93.504 102.73 93.5055 102.13 94.1035C101.531 94.7015 101.531 95.6721 102.13 96.2716L105.12 99.2601ZM55.7169 49.2229H9.56214C8.71574 49.2229 8.02881 48.536 8.02881 47.6896C8.02881 46.8432 8.71574 46.1562 9.56214 46.1562H55.7184C56.5648 46.1562 57.2517 46.8432 57.2517 47.6896C57.2517 48.536 56.5648 49.2229 55.7169 49.2229ZM79.4263 41.4597C79.4263 42.3061 80.1117 42.9931 80.9596 42.9931C81.8075 42.9931 82.4945 42.3061 82.4929 41.4597V37.2339C82.4929 36.3875 81.8075 35.7006 80.9596 35.7006C80.1117 35.7006 79.4263 36.3875 79.4263 37.2339V41.4597ZM80.9596 110.167C80.1117 110.167 79.4263 109.481 79.4263 108.633V104.406C79.4263 103.558 80.1117 102.873 80.9596 102.873C81.8075 102.873 82.4929 103.558 82.4929 104.406V108.632C82.4945 109.481 81.8075 110.167 80.9596 110.167ZM112.434 74.4661H116.659C117.506 74.4661 118.192 73.7807 118.192 72.9327C118.192 72.0848 117.506 71.3994 116.659 71.3994H112.434C111.586 71.3994 110.901 72.0848 110.901 72.9327C110.901 73.7807 111.586 74.4661 112.434 74.4661ZM49.4867 74.4661H1.53333C0.686931 74.4661 0 73.7807 0 72.9327C0 72.0848 0.686931 71.3994 1.53333 71.3994H49.4867C50.3331 71.3994 51.02 72.0848 51.02 72.9327C51.02 73.7807 50.3346 74.4661 49.4867 74.4661Z" fill="url(#paint0_linear_247_141)"/>
<defs>
<linearGradient id="paint0_linear_247_141" x1="138" y1="0" x2="-17.0721" y2="91.2185" gradientUnits="userSpaceOnUse">
<stop stop-color="#31783C"/>
<stop offset="1" stop-color="#07C80E"/>
</linearGradient>
</defs>
</svg>
