<svg width="139" height="112" viewBox="0 0 139 112" fill="none" xmlns="http://www.w3.org/2000/svg">
<mask id="mask0_131_278" style="mask-type:alpha" maskUnits="userSpaceOnUse" x="0" y="0" width="139" height="112">
<path d="M125.497 111.831C124.649 111.831 123.905 111.145 123.905 110.297C123.905 109.449 124.534 108.764 125.382 108.764C131.196 108.764 135.833 104.127 135.833 98.4277V13.4044C135.833 7.705 131.196 3.06667 125.497 3.06667H14.3043C8.60337 3.06667 3.96657 7.70347 3.96657 13.4029V98.4262C3.96657 104.126 8.60337 108.762 14.3043 108.762H69.6546C70.501 108.762 71.1879 109.448 71.1879 110.296C71.1879 111.144 70.501 111.829 69.6546 111.829H14.3043C6.9121 111.831 0.899902 105.818 0.899902 98.4277V13.4044C0.899902 6.01373 6.9121 0 14.3043 0H125.497C132.888 0 138.9 6.0122 138.9 13.4044V98.4277C138.9 105.818 132.888 111.831 125.497 111.831Z" fill="black"/>
<path d="M109.611 111.837C109.351 111.837 109.087 111.771 108.846 111.631C108.112 111.208 107.86 110.27 108.285 109.537C108.98 108.335 109.164 106.935 108.805 105.593C108.446 104.253 107.586 103.134 106.384 102.439C103.691 100.884 102.117 97.9892 102.268 94.8812C102.317 93.8416 102.317 92.7836 102.268 91.7363C102.117 88.6374 103.693 85.7456 106.381 84.1938C107.583 83.4992 108.445 82.3783 108.803 81.0367C109.162 79.6966 108.978 78.2966 108.284 77.0945L103.139 68.1812C102.446 66.9791 101.324 66.1189 99.9837 65.7601C98.6466 65.4028 97.2436 65.5853 96.0415 66.2799C93.3566 67.8316 90.0661 67.7534 87.4517 66.0714C86.5701 65.504 85.6547 64.975 84.7301 64.5012C81.9609 63.0752 80.242 60.2631 80.242 57.1612C80.242 54.2954 77.9098 51.9632 75.0455 51.9632H64.7523C61.888 51.9632 59.5573 54.2938 59.5573 57.1581C59.5573 60.2569 57.8047 63.089 54.9849 64.5488C54.551 64.7726 54.1232 65.0057 53.6985 65.2526C53.2661 65.4994 52.849 65.7555 52.4411 66.0161C49.7716 67.7289 46.4443 67.8331 43.7563 66.2814C42.5557 65.5883 41.1573 65.4043 39.8141 65.7616C38.4725 66.1204 37.3531 66.9806 36.657 68.1828L31.5127 77.096C30.0805 79.577 30.9346 82.7602 33.4155 84.1938C36.1081 85.7486 37.6828 88.6436 37.531 91.7516C37.4804 92.7912 37.4804 93.8477 37.531 94.8965C37.5709 95.7413 36.9192 96.462 36.0728 96.5019C35.2233 96.5448 34.5073 95.8901 34.4674 95.0437C34.4122 93.8983 34.4122 92.7406 34.4674 91.6029C34.564 89.6494 33.5735 87.8278 31.8853 86.8526C27.9369 84.5726 26.5799 79.5095 28.8569 75.5642L34.0028 66.6509C35.1083 64.7389 36.8901 63.3711 39.0214 62.7992C41.1543 62.2288 43.3791 62.5232 45.2912 63.6257C46.9779 64.6009 49.0862 64.5273 50.7882 63.434C51.2405 63.1458 51.699 62.8651 52.1682 62.5953C52.6297 62.3285 53.102 62.0709 53.5773 61.8256C55.3744 60.8964 56.4907 59.1069 56.4907 57.1581C56.4907 52.6025 60.1967 48.8965 64.7523 48.8965H75.0455C79.6026 48.8965 83.3087 52.6025 83.3087 57.1581C83.3087 59.1085 84.3897 60.8779 86.1315 61.7749C87.1435 62.2932 88.1463 62.8728 89.1108 63.4938C90.7515 64.5488 92.8184 64.6024 94.5066 63.6257C96.4187 62.5232 98.6466 62.2303 100.778 62.7992C102.911 63.3696 104.693 64.7374 105.795 66.6494L110.939 75.5627C112.043 77.4732 112.336 79.6996 111.764 81.8325C111.194 83.9654 109.826 85.7471 107.914 86.8495C106.224 87.8247 105.235 89.6402 105.33 91.5891C105.384 92.7345 105.384 93.8922 105.33 95.0299C105.234 96.9849 106.223 98.8065 107.913 99.7817C109.826 100.887 111.194 102.667 111.766 104.799C112.336 106.932 112.045 109.158 110.941 111.07C110.657 111.561 110.142 111.837 109.611 111.837ZM69.6528 111.785C68.8064 111.785 68.1195 111.099 68.1195 110.251C68.1195 109.403 68.8064 108.718 69.6528 108.718C78.011 108.718 84.8083 101.919 84.8083 93.5625C84.8083 85.2058 78.0095 78.407 69.6528 78.407C61.2961 78.407 54.4989 85.2058 54.4989 93.5625C54.4989 94.4104 53.8119 95.0958 52.9655 95.0958C52.1191 95.0958 51.4322 94.4104 51.4322 93.5625C51.4322 83.5146 59.6064 75.3403 69.6528 75.3403C79.7007 75.3403 87.8749 83.5146 87.8749 93.5625C87.8749 103.61 79.7023 111.785 69.6528 111.785Z" fill="black"/>
<path d="M20.741 22.0922C22.4347 22.0922 23.8076 20.7192 23.8076 19.0255C23.8076 17.3319 22.4347 15.9589 20.741 15.9589C19.0473 15.9589 17.6743 17.3319 17.6743 19.0255C17.6743 20.7192 19.0473 22.0922 20.741 22.0922Z" fill="black"/>
<path d="M36.6111 22.0922C38.3048 22.0922 39.6778 20.7192 39.6778 19.0255C39.6778 17.3319 38.3048 15.9589 36.6111 15.9589C34.9174 15.9589 33.5444 17.3319 33.5444 19.0255C33.5444 20.7192 34.9174 22.0922 36.6111 22.0922Z" fill="black"/>
<path d="M52.4812 22.0922C54.1749 22.0922 55.5479 20.7192 55.5479 19.0255C55.5479 17.3319 54.1749 15.9589 52.4812 15.9589C50.7875 15.9589 49.4146 17.3319 49.4146 19.0255C49.4146 20.7192 50.7875 22.0922 52.4812 22.0922Z" fill="black"/>
<path d="M122.128 20.5558H80.7975C79.9496 20.5558 79.2642 19.8689 79.2642 19.0225C79.2642 18.1761 79.9496 17.4891 80.7975 17.4891H122.127C122.975 17.4891 123.66 18.1761 123.66 19.0225C123.66 19.8689 122.975 20.5558 122.128 20.5558Z" fill="black"/>
</mask>
<g mask="url(#mask0_131_278)">
<rect x="0.899902" width="138.055" height="111.862" fill="url(#paint0_linear_131_278)"/>
</g>
<defs>
<linearGradient id="paint0_linear_131_278" x1="138.954" y1="0" x2="-3.31906" y2="97.2971" gradientUnits="userSpaceOnUse">
<stop stop-color="#31783C"/>
<stop offset="1" stop-color="#07C80E"/>
</linearGradient>
</defs>
</svg>
