<svg width="138" height="112" viewBox="0 0 138 112" fill="none" xmlns="http://www.w3.org/2000/svg">
<path fill-rule="evenodd" clip-rule="evenodd" d="M123.006 110.297C123.006 111.145 123.749 111.831 124.597 111.831C131.988 111.831 138 105.818 138 98.4277V13.4044C138 6.0122 131.988 0 124.597 0H13.4044C6.0122 0 0 6.01373 0 13.4044V98.4277C0 105.818 6.0122 111.831 13.4044 111.829H68.7547C68.8873 111.829 69.016 111.812 69.1388 111.781C79.0108 111.575 86.975 103.481 86.975 93.5625C86.975 83.5146 78.8008 75.3403 68.7529 75.3403C58.7065 75.3403 50.5323 83.5146 50.5323 93.5625C50.5323 94.4104 51.2192 95.0958 52.0656 95.0958C52.912 95.0958 53.599 94.4104 53.599 93.5625C53.599 85.2058 60.3962 78.407 68.7529 78.407C77.1096 78.407 83.9084 85.2058 83.9084 93.5625C83.9084 101.919 77.1111 108.718 68.7529 108.718C68.626 108.718 68.5027 108.733 68.3847 108.762H13.4044C7.70347 108.762 3.06667 104.126 3.06667 98.4262V13.4029C3.06667 7.70347 7.70347 3.06667 13.4044 3.06667H124.597C130.297 3.06667 134.933 7.705 134.933 13.4044V98.4277C134.933 104.127 130.297 108.764 124.482 108.764C123.634 108.764 123.006 109.449 123.006 110.297ZM107.946 111.631C108.187 111.771 108.451 111.837 108.712 111.837C109.242 111.837 109.757 111.561 110.041 111.07C111.145 109.158 111.436 106.932 110.866 104.799C110.294 102.667 108.926 100.887 107.013 99.7817C105.323 98.8065 104.334 96.9849 104.43 95.0299C104.484 93.8922 104.484 92.7345 104.43 91.5891C104.335 89.6402 105.324 87.8247 107.014 86.8495C108.926 85.7471 110.294 83.9654 110.864 81.8325C111.436 79.6996 111.143 77.4732 110.039 75.5627L104.895 66.6494C103.793 64.7374 102.011 63.3696 99.878 62.7992C97.7467 62.2303 95.5188 62.5232 93.6067 63.6257C91.9185 64.6024 89.8516 64.5488 88.2109 63.4938C87.2464 62.8728 86.2436 62.2932 85.2316 61.7749C83.4898 60.8779 82.4088 59.1085 82.4088 57.1581C82.4088 52.6025 78.7027 48.8965 74.1456 48.8965H63.8524C59.2968 48.8965 55.5908 52.6025 55.5908 57.1581C55.5908 59.1069 54.4745 60.8964 52.6774 61.8256C52.2021 62.0709 51.7298 62.3285 51.2683 62.5953C50.7991 62.8652 50.3406 63.1458 49.8883 63.434C48.1863 64.5273 46.078 64.6009 44.3913 63.6257C42.4792 62.5232 40.2544 62.2288 38.1215 62.7992C35.9902 63.3711 34.2084 64.7389 33.1029 66.6509L27.957 75.5642C25.68 79.5095 27.037 84.5726 30.9854 86.8526C32.6736 87.8278 33.6641 89.6494 33.5675 91.6029C33.5123 92.7406 33.5123 93.8983 33.5675 95.0437C33.6074 95.8901 34.3234 96.5448 35.1729 96.5019C36.0193 96.462 36.671 95.7413 36.6311 94.8965C36.5805 93.8477 36.5805 92.7912 36.6311 91.7516C36.7829 88.6436 35.2082 85.7486 32.5156 84.1938C30.0347 82.7602 29.1806 79.577 30.6128 77.096L35.7571 68.1828C36.4532 66.9806 37.5726 66.1204 38.9142 65.7616C40.2574 65.4044 41.6558 65.5883 42.8564 66.2814C45.5444 67.8331 48.8717 67.7289 51.5412 66.0161C51.9491 65.7555 52.3662 65.4994 52.7986 65.2525C53.2233 65.0057 53.6511 64.7726 54.085 64.5488C56.9048 63.089 58.6574 60.2569 58.6574 57.1581C58.6574 54.2938 60.9881 51.9632 63.8524 51.9632H74.1456C77.0099 51.9632 79.3421 54.2953 79.3421 57.1612C79.3421 60.2631 81.061 63.0752 83.8302 64.5012C84.7548 64.975 85.6702 65.504 86.5518 66.0714C89.1662 67.7534 92.4567 67.8316 95.1416 66.2799C96.3437 65.5853 97.7467 65.4028 99.0838 65.7601C100.424 66.1189 101.546 66.9791 102.239 68.1812L107.384 77.0945C108.078 78.2966 108.262 79.6965 107.903 81.0367C107.545 82.3783 106.683 83.4992 105.481 84.1938C102.793 85.7456 101.217 88.6374 101.368 91.7363C101.417 92.7836 101.417 93.8416 101.368 94.8812C101.217 97.9892 102.791 100.884 105.484 102.439C106.686 103.134 107.546 104.253 107.905 105.593C108.264 106.935 108.08 108.335 107.385 109.537C106.96 110.27 107.212 111.208 107.946 111.631ZM19.8411 22.0922C21.5348 22.0922 22.9077 20.7192 22.9077 19.0255C22.9077 17.3319 21.5348 15.9589 19.8411 15.9589C18.1474 15.9589 16.7744 17.3319 16.7744 19.0255C16.7744 20.7192 18.1474 22.0922 19.8411 22.0922ZM38.7779 19.0255C38.7779 20.7192 37.4049 22.0922 35.7112 22.0922C34.0175 22.0922 32.6445 20.7192 32.6445 19.0255C32.6445 17.3319 34.0175 15.9589 35.7112 15.9589C37.4049 15.9589 38.7779 17.3319 38.7779 19.0255ZM51.5813 22.0922C53.275 22.0922 54.648 20.7192 54.648 19.0255C54.648 17.3319 53.275 15.9589 51.5813 15.9589C49.8876 15.9589 48.5146 17.3319 48.5146 19.0255C48.5146 20.7192 49.8876 22.0922 51.5813 22.0922ZM79.8976 20.5558H121.229C122.075 20.5558 122.76 19.8689 122.76 19.0225C122.76 18.1761 122.075 17.4891 121.227 17.4891H79.8976C79.0497 17.4891 78.3643 18.1761 78.3643 19.0225C78.3643 19.8689 79.0497 20.5558 79.8976 20.5558Z" fill="url(#paint0_linear_247_119)"/>
<defs>
<linearGradient id="paint0_linear_247_119" x1="138" y1="0" x2="-4.23238" y2="97.2528" gradientUnits="userSpaceOnUse">
<stop stop-color="#31783C"/>
<stop offset="1" stop-color="#07C80E"/>
</linearGradient>
</defs>
</svg>
