<svg width="138" height="138" viewBox="0 0 138 138" fill="none" xmlns="http://www.w3.org/2000/svg">
<path fill-rule="evenodd" clip-rule="evenodd" d="M109.383 14.6479H103.811V1.53333C103.811 0.686933 103.126 0 102.278 0C101.43 0 100.745 0.686933 100.745 1.53333V14.6479H81.6257V1.53333C81.6257 0.686933 80.9403 0 80.0924 0C79.2445 0 78.5591 0.686933 78.5591 1.53333V14.6479H59.4412V1.53333C59.4412 0.686933 58.7542 0 57.9078 0C57.0614 0 56.3745 0.686933 56.3745 1.53333V14.6479H37.2556V1.53333C37.2556 0.686933 36.5687 0 35.7223 0C34.8759 0 34.189 0.686933 34.189 1.53333V14.6479H28.6166C20.9147 14.6479 14.6479 20.9147 14.6479 28.6166V34.1887H1.53333C0.686933 34.1887 0 34.8757 0 35.7221C0 36.5685 0.686933 37.2554 1.53333 37.2554H14.6479V56.3745H1.53333C0.686933 56.3745 0 57.0614 0 57.9078C0 58.7542 0.686933 59.4412 1.53333 59.4412H14.6479V78.5588H1.53333C0.686933 78.5588 0 79.2442 0 80.0922C0 80.9401 0.686933 81.6255 1.53333 81.6255H14.6479V100.745H1.53333C0.686933 100.745 0 101.43 0 102.278C0 103.126 0.686933 103.811 1.53333 103.811H14.6479V109.383C14.6479 117.087 20.9147 123.354 28.6166 123.354H34.189V136.467C34.189 137.315 34.8759 138 35.7223 138C36.5702 138 37.2556 137.315 37.2556 136.467V123.354H56.3745V136.467C56.3745 137.315 57.0614 138 57.9078 138C58.7542 138 59.4412 137.315 59.4412 136.467V123.354H78.5591V136.467C78.5591 137.315 79.2445 138 80.0924 138C80.9403 138 81.6257 137.315 81.6257 136.467V123.354H100.745V136.467C100.745 137.315 101.43 138 102.278 138C103.126 138 103.811 137.315 103.811 136.467V123.354H109.383C117.087 123.354 123.354 117.087 123.354 109.383V103.811H136.467C137.315 103.811 138 103.126 138 102.278C138 101.43 137.315 100.745 136.467 100.745H123.354V81.6255H136.467C137.315 81.6255 138 80.9401 138 80.0922C138 79.2442 137.315 78.5588 136.467 78.5588H123.354V59.4412H136.467C137.315 59.4412 138 58.7542 138 57.9078C138 57.0614 137.315 56.3745 136.467 56.3745H123.354V37.2554H136.467C137.315 37.2554 138 36.5685 138 35.7221C138 34.8757 137.315 34.1887 136.467 34.1887H123.354V28.6166C123.354 20.9147 117.087 14.6479 109.383 14.6479ZM17.7146 28.6151C17.7146 22.6029 22.6044 17.7131 28.6166 17.7131V17.7146H109.383C115.396 17.7146 120.287 22.6044 120.287 28.6166V109.382C120.287 115.394 115.396 120.285 109.383 120.285H28.6166C22.6044 120.285 17.7146 115.394 17.7146 109.382V28.6151ZM53.2846 91.4346C52.1487 87.8582 51.2825 83.8544 50.7422 79.5422C47.2772 76.9179 44.2422 74.1653 41.7125 71.3928C36.8353 77.5755 34.8742 83.4923 37.1295 87.4C39.3857 91.3062 45.4909 92.5669 53.2846 91.4346ZM54.3298 94.4104C52.2095 94.7398 50.1883 94.9056 48.2952 94.9056C41.7862 94.9056 36.7922 92.9476 34.4738 88.9333C31.483 83.7531 33.6888 76.4177 39.6585 69.0003C33.6888 61.5827 31.483 54.2468 34.4738 49.0666C37.4647 43.8862 44.9205 42.1283 54.3295 43.5896C57.7684 34.7111 63.0183 29.1333 69 29.1333C74.9853 29.1333 80.238 34.7179 83.6767 43.606C84.5249 43.4739 85.3613 43.367 86.1839 43.286C94.7292 42.4472 100.887 44.4973 103.526 49.0666C106.165 53.636 104.863 59.9962 99.8597 66.976C99.3749 67.6523 98.8605 68.3276 98.3179 69.0005C98.8605 69.6736 99.3749 70.349 99.8597 71.0255C104.863 78.0052 106.163 84.3655 103.526 88.9348C101.275 92.831 96.4603 94.8995 89.7903 94.8995C88.6418 94.8995 87.4397 94.8382 86.1839 94.714C85.3611 94.633 84.5247 94.5263 83.6764 94.3943C80.2376 103.282 74.985 108.867 69 108.867C63.0185 108.867 57.7687 103.289 54.3298 94.4104ZM96.2842 66.6319C96.6612 66.1514 97.0227 65.6699 97.368 65.1881C101.565 59.3323 102.84 54.0132 100.869 50.5984C98.8998 47.1837 93.6512 45.6335 86.4844 46.3358C85.9006 46.3934 85.3091 46.465 84.7107 46.5503C85.85 50.134 86.7185 54.1473 87.2593 58.4704C90.6661 61.0571 93.7121 63.81 96.2842 66.6319ZM80.5778 44.1886C77.6618 36.8639 73.5155 32.2 69 32.2C64.4886 32.2 60.345 36.857 57.4292 44.1724C61.0976 44.9776 65.0019 46.2309 69.0103 47.9215C72.9493 46.2661 76.8517 45.0054 80.5778 44.1886ZM72.8852 49.6781C75.8704 48.5601 78.8065 47.6919 81.6253 47.0975C82.5044 49.8014 83.2293 52.7826 83.7661 55.9627C82.0613 54.8053 80.2853 53.6917 78.4498 52.6316C76.5904 51.5581 74.7314 50.5733 72.8852 49.6781ZM65.0925 49.6929C62.0784 48.571 59.1423 47.7097 56.368 47.1192C55.4925 49.8157 54.7704 52.7875 54.235 55.9569C55.9258 54.8117 57.6997 53.6999 59.5499 52.6316C61.3856 51.572 63.238 50.5907 65.0925 49.6929ZM53.6518 60.1377C55.9611 58.4393 58.4488 56.8083 61.0832 55.2874C63.7013 53.776 66.3501 52.4314 68.984 51.2696C71.6153 52.422 74.2776 53.7633 76.918 55.2874C79.535 56.7983 82.0234 58.4194 84.3462 60.1191C84.6638 62.9743 84.8332 65.951 84.8332 69C84.8332 72.048 84.6639 75.0237 84.3465 77.878C82.0233 79.5781 79.5343 81.1996 76.9164 82.711C74.2768 84.2355 71.6151 85.5771 68.9844 86.7295C66.3507 85.5676 63.7022 84.2227 61.0848 82.711C58.4497 81.1899 55.9613 79.5587 53.6515 77.86C53.3353 75.0112 53.1668 72.0416 53.1668 69C53.1668 65.9576 53.3354 62.9873 53.6518 60.1377ZM50.7421 58.4583C51.2823 54.1455 52.1487 50.1412 53.2847 46.5645C51.4628 46.2996 49.7332 46.1656 48.1235 46.1656C42.8473 46.1656 38.8591 47.6054 37.131 50.6C34.875 54.5076 36.836 60.4243 41.7134 66.6068C44.2429 63.8347 47.2775 61.0824 50.7421 58.4583ZM43.735 68.9992C45.6325 66.8928 47.8452 64.7816 50.3224 62.7332C50.1759 64.7705 50.1001 66.8631 50.1001 69C50.1001 71.1361 50.1759 73.2281 50.3223 75.2648C47.8451 73.2166 45.6325 71.1055 43.735 68.9992ZM69.0094 90.0787C72.9486 91.7344 76.8514 92.9954 80.5778 93.8119C77.6618 101.136 73.5155 105.8 69 105.8C64.4885 105.8 60.3448 101.143 57.429 93.8276C61.0973 93.0223 65.0015 91.7691 69.0094 90.0787ZM65.0915 88.3069C62.0777 89.4289 59.1417 90.2899 56.3676 90.8802C55.4923 88.1839 54.7703 85.2125 54.2349 82.0433C55.9257 83.1885 57.6997 84.3002 59.5499 85.3683C61.3852 86.4279 63.2372 87.4091 65.0915 88.3069ZM72.8862 88.3213C74.7321 87.4262 76.5908 86.4416 78.4498 85.3683C80.2853 84.3086 82.0613 83.1951 83.7661 82.0378C83.2294 85.2171 82.5049 88.1974 81.6261 90.9007C78.8073 90.307 75.8712 89.4391 72.8862 88.3213ZM87.2592 79.5304C86.7184 83.8521 85.8502 87.8643 84.7113 91.4471C85.31 91.5322 85.9018 91.6036 86.486 91.6611C93.6528 92.3695 98.8983 90.8132 100.87 87.4C102.842 83.9837 101.566 78.6676 97.3696 72.8103C97.0244 72.3286 96.663 71.8473 96.286 71.3669C93.7136 74.1893 90.6669 76.9431 87.2592 79.5304ZM87.6755 75.2951C90.1427 73.2635 92.3679 71.1487 94.2954 68.9983C92.3679 66.8482 90.1427 64.7336 87.6753 62.702C87.8232 64.7491 87.8998 66.8522 87.8998 69C87.8998 71.1467 87.8233 73.2489 87.6755 75.2951ZM68.9999 76.8154C64.6912 76.8154 61.186 73.3102 61.186 69C61.186 64.6914 64.6912 61.1862 68.9999 61.1862C73.3101 61.1862 76.8153 64.6914 76.8153 69C76.8153 73.3102 73.3101 76.8154 68.9999 76.8154ZM68.9999 64.2528C66.3825 64.2528 64.2527 66.3826 64.2527 69C64.2527 71.6174 66.3825 73.7488 68.9999 73.7488C71.6173 73.7488 73.7486 71.6174 73.7486 69C73.7486 66.3826 71.6173 64.2528 68.9999 64.2528Z" fill="url(#paint0_linear_247_174)"/>
<defs>
<linearGradient id="paint0_linear_247_174" x1="138" y1="0" x2="-21.6946" y2="88.4911" gradientUnits="userSpaceOnUse">
<stop stop-color="#31783C"/>
<stop offset="1" stop-color="#07C80E"/>
</linearGradient>
</defs>
</svg>
