<svg width="138" height="138" viewBox="0 0 138 138" fill="none" xmlns="http://www.w3.org/2000/svg">
<mask id="mask0_131_250" style="mask-type:alpha" maskUnits="userSpaceOnUse" x="0" y="0" width="138" height="138">
<path d="M69 108.867C58.4016 108.867 50.1001 91.3544 50.1001 69C50.1001 46.644 58.4016 29.1333 69 29.1333C79.5984 29.1333 87.8998 46.644 87.8998 69C87.8998 91.3544 79.5984 108.867 69 108.867ZM69 32.2C60.4179 32.2 53.1668 49.0528 53.1668 69C53.1668 88.9486 60.4179 105.8 69 105.8C77.5836 105.8 84.8332 88.9486 84.8332 69C84.8332 49.0528 77.5836 32.2 69 32.2Z" fill="black"/>
<path d="M89.7903 94.8995C88.6418 94.8995 87.4397 94.8382 86.1839 94.714C78.0603 93.9151 68.6012 90.5939 59.5499 85.3683C40.19 74.1918 29.1746 58.2452 34.4738 49.0666C39.773 39.8881 59.0884 41.4536 78.4498 52.6316C87.501 57.8588 95.1048 64.3908 99.8597 71.0255C104.863 78.0052 106.163 84.3655 103.526 88.9348C101.275 92.831 96.4603 94.8995 89.7903 94.8995ZM48.1235 46.1656C42.8473 46.1656 38.8591 47.6054 37.131 50.6C32.8392 58.0336 43.8087 72.7382 61.0848 82.711C69.7665 87.725 78.7886 90.9036 86.486 91.6611C93.6528 92.3695 98.8983 90.8132 100.87 87.4C102.842 83.9837 101.566 78.6676 97.3696 72.8103C92.8646 66.5236 85.5997 60.2998 76.918 55.2874C66.6002 49.3319 55.9466 46.1656 48.1235 46.1656Z" fill="black"/>
<path d="M48.2952 94.9056C41.7862 94.9056 36.7922 92.9476 34.4738 88.9333C29.1746 79.7548 40.19 63.8096 59.5499 52.6316C68.6027 47.406 78.0603 44.0864 86.1839 43.286C94.7292 42.4472 100.887 44.4973 103.526 49.0666C106.165 53.636 104.863 59.9962 99.8597 66.976C95.1048 73.6092 87.501 80.1427 78.4498 85.3683C67.5554 91.658 56.6718 94.9056 48.2952 94.9056ZM61.0832 55.2874C43.8072 65.2617 32.8392 79.9664 37.1295 87.4C41.4213 94.8305 59.6404 92.6884 76.9164 82.711C85.5982 77.6986 92.8616 71.4763 97.368 65.1881C101.565 59.3323 102.84 54.0132 100.869 50.5984C98.8998 47.1837 93.6512 45.6335 86.4844 46.3358C78.7871 47.0963 69.7665 50.2749 61.0832 55.2874Z" fill="black"/>
<path d="M68.9999 76.8154C64.6912 76.8154 61.186 73.3102 61.186 69C61.186 64.6914 64.6912 61.1862 68.9999 61.1862C73.3101 61.1862 76.8153 64.6914 76.8153 69C76.8153 73.3102 73.3101 76.8154 68.9999 76.8154ZM68.9999 64.2528C66.3825 64.2528 64.2527 66.3826 64.2527 69C64.2527 71.6174 66.3825 73.7488 68.9999 73.7488C71.6173 73.7488 73.7486 71.6174 73.7486 69C73.7486 66.3826 71.6173 64.2528 68.9999 64.2528Z" fill="black"/>
<path d="M109.383 123.354H28.6166C20.9147 123.354 14.6479 117.087 14.6479 109.383V28.6166C14.6479 20.9147 20.9147 14.6479 28.6166 14.6479H109.383C117.087 14.6479 123.354 20.9147 123.354 28.6166V109.383C123.354 117.087 117.087 123.354 109.383 123.354ZM28.6166 17.7131C22.6044 17.7131 17.7146 22.6029 17.7146 28.6151V109.382C17.7146 115.394 22.6044 120.285 28.6166 120.285H109.383C115.396 120.285 120.287 115.394 120.287 109.382V28.6166C120.287 22.6044 115.396 17.7146 109.383 17.7146H28.6166V17.7131Z" fill="black"/>
<path d="M35.7223 17.7131C34.8759 17.7131 34.189 17.0261 34.189 16.1797V1.53333C34.189 0.686933 34.8759 0 35.7223 0C36.5687 0 37.2556 0.686933 37.2556 1.53333V16.1797C37.2556 17.0261 36.5702 17.7131 35.7223 17.7131Z" fill="black"/>
<path d="M35.7223 138C34.8759 138 34.189 137.315 34.189 136.467V121.82C34.189 120.972 34.8759 120.287 35.7223 120.287C36.5687 120.287 37.2556 120.972 37.2556 121.82V136.467C37.2556 137.315 36.5702 138 35.7223 138Z" fill="black"/>
<path d="M102.278 17.7131C101.43 17.7131 100.745 17.0261 100.745 16.1797V1.53333C100.745 0.686933 101.43 0 102.278 0C103.126 0 103.811 0.686933 103.811 1.53333V16.1797C103.811 17.0261 103.126 17.7131 102.278 17.7131Z" fill="black"/>
<path d="M102.278 138C101.43 138 100.745 137.315 100.745 136.467V121.82C100.745 120.972 101.43 120.287 102.278 120.287C103.126 120.287 103.811 120.972 103.811 121.82V136.467C103.811 137.315 103.126 138 102.278 138Z" fill="black"/>
<path d="M57.9078 17.7131C57.0614 17.7131 56.3745 17.0261 56.3745 16.1797V1.53333C56.3745 0.686933 57.0614 0 57.9078 0C58.7542 0 59.4412 0.686933 59.4412 1.53333V16.1797C59.4412 17.0261 58.7542 17.7131 57.9078 17.7131Z" fill="black"/>
<path d="M57.9078 138C57.0614 138 56.3745 137.315 56.3745 136.467V121.82C56.3745 120.972 57.0614 120.287 57.9078 120.287C58.7542 120.287 59.4412 120.972 59.4412 121.82V136.467C59.4412 137.315 58.7542 138 57.9078 138Z" fill="black"/>
<path d="M80.0924 17.7131C79.2445 17.7131 78.5591 17.0261 78.5591 16.1797V1.53333C78.5591 0.686933 79.2445 0 80.0924 0C80.9403 0 81.6257 0.686933 81.6257 1.53333V16.1797C81.6257 17.0261 80.9403 17.7131 80.0924 17.7131Z" fill="black"/>
<path d="M80.0924 138C79.2445 138 78.5591 137.315 78.5591 136.467V121.82C78.5591 120.972 79.2445 120.287 80.0924 120.287C80.9403 120.287 81.6257 120.972 81.6257 121.82V136.467C81.6257 137.315 80.9403 138 80.0924 138Z" fill="black"/>
<path d="M16.1797 103.811H1.53333C0.686933 103.811 0 103.126 0 102.278C0 101.43 0.686933 100.745 1.53333 100.745H16.1797C17.0261 100.745 17.7131 101.43 17.7131 102.278C17.7131 103.126 17.0261 103.811 16.1797 103.811Z" fill="black"/>
<path d="M136.467 103.811H121.82C120.973 103.811 120.287 103.126 120.287 102.278C120.287 101.43 120.973 100.745 121.82 100.745H136.467C137.315 100.745 138 101.43 138 102.278C138 103.126 137.315 103.811 136.467 103.811Z" fill="black"/>
<path d="M16.1797 37.2554H1.53333C0.686933 37.2554 0 36.5685 0 35.7221C0 34.8757 0.686933 34.1887 1.53333 34.1887H16.1797C17.0261 34.1887 17.7131 34.8757 17.7131 35.7221C17.7131 36.5685 17.0261 37.2554 16.1797 37.2554Z" fill="black"/>
<path d="M136.467 37.2554H121.82C120.973 37.2554 120.287 36.5685 120.287 35.7221C120.287 34.8757 120.973 34.1887 121.82 34.1887H136.467C137.315 34.1887 138 34.8757 138 35.7221C138 36.5685 137.315 37.2554 136.467 37.2554Z" fill="black"/>
<path d="M16.1797 81.6255H1.53333C0.686933 81.6255 0 80.9401 0 80.0922C0 79.2442 0.686933 78.5588 1.53333 78.5588H16.1797C17.0261 78.5588 17.7131 79.2442 17.7131 80.0922C17.7131 80.9401 17.0261 81.6255 16.1797 81.6255Z" fill="black"/>
<path d="M136.467 81.6255H121.82C120.973 81.6255 120.287 80.9401 120.287 80.0922C120.287 79.2442 120.973 78.5588 121.82 78.5588H136.467C137.315 78.5588 138 79.2442 138 80.0922C138 80.9401 137.315 81.6255 136.467 81.6255Z" fill="black"/>
<path d="M16.1797 59.4412H1.53333C0.686933 59.4412 0 58.7542 0 57.9078C0 57.0614 0.686933 56.3745 1.53333 56.3745H16.1797C17.0261 56.3745 17.7131 57.0614 17.7131 57.9078C17.7131 58.7542 17.0261 59.4412 16.1797 59.4412Z" fill="black"/>
<path d="M136.467 59.4412H121.82C120.973 59.4412 120.287 58.7542 120.287 57.9078C120.287 57.0614 120.973 56.3745 121.82 56.3745H136.467C137.315 56.3745 138 57.0614 138 57.9078C138 58.7542 137.315 59.4412 136.467 59.4412Z" fill="black"/>
</mask>
<g mask="url(#mask0_131_250)">
<rect width="138.055" height="138.055" fill="url(#paint0_linear_131_250)"/>
</g>
<defs>
<linearGradient id="paint0_linear_131_250" x1="138.055" y1="0" x2="-21.7032" y2="88.5261" gradientUnits="userSpaceOnUse">
<stop stop-color="#31783C"/>
<stop offset="1" stop-color="#07C80E"/>
</linearGradient>
</defs>
</svg>
